<svg width="60" height="60" viewBox="0 0 60 60" fill="none" xmlns="http://www.w3.org/2000/svg">
<path d="M18.7889 42.9999C22.5383 42.9999 25.5778 39.9604 25.5778 36.211C25.5778 32.4616 22.5383 29.4221 18.7889 29.4221C15.0395 29.4221 12 32.4616 12 36.211C12 39.9604 15.0395 42.9999 18.7889 42.9999Z" stroke="#769763" stroke-miterlimit="10" stroke-linecap="round" stroke-linejoin="round"/>
<path d="M41.211 42.9999C44.9604 42.9999 47.9999 39.9604 47.9999 36.211C47.9999 32.4616 44.9604 29.4221 41.211 29.4221C37.4616 29.4221 34.4221 32.4616 34.4221 36.211C34.4221 39.9604 37.4616 42.9999 41.211 42.9999Z" stroke="#769763" stroke-miterlimit="10" stroke-linecap="round" stroke-linejoin="round"/>
<path d="M41.2111 36.2111L36.2111 20.4333L41.2111 18" stroke="#769763" stroke-miterlimit="10" stroke-linecap="round" stroke-linejoin="round"/>
<path d="M21.2999 19.2222H25.5777" stroke="#769763" stroke-miterlimit="10" stroke-linecap="round" stroke-linejoin="round"/>
<path d="M23.4334 19.2222L29.1889 36.211H18.7889" stroke="#769763" stroke-miterlimit="10" stroke-linecap="round" stroke-linejoin="round"/>
<path d="M26.111 27.111L36.9776 22.8777L29.1887 36.211" stroke="#769763" stroke-miterlimit="10" stroke-linecap="round" stroke-linejoin="round"/>
</svg>
