<svg width="60" height="60" viewBox="0 0 60 60" fill="none" xmlns="http://www.w3.org/2000/svg">
<path d="M18.7999 36.4699C15.6599 35.5199 13.8799 32.1999 14.8299 29.0599L16.8399 22.3999L28.2299 25.8399L26.2199 32.4999C25.2599 35.6399 21.9399 37.4199 18.7999 36.4699Z" stroke="#769763" stroke-miterlimit="10" stroke-linecap="round" stroke-linejoin="round"/>
<path d="M18.8001 36.47L16.0701 45.5" stroke="#769763" stroke-miterlimit="10" stroke-linecap="round" stroke-linejoin="round"/>
<path d="M12 44.27L20.14 46.73" stroke="#769763" stroke-miterlimit="10" stroke-linecap="round" stroke-linejoin="round"/>
<path d="M15.6899 26.2L27.0799 29.65" stroke="#769763" stroke-miterlimit="10" stroke-linecap="round" stroke-linejoin="round"/>
<path d="M40.5501 36.4699C43.6901 35.5199 45.4701 32.1999 44.5201 29.0599L42.5101 22.3999L31.1201 25.8399L33.1301 32.4999C34.0901 35.6399 37.4101 37.4199 40.5501 36.4699Z" stroke="#769763" stroke-miterlimit="10" stroke-linecap="round" stroke-linejoin="round"/>
<path d="M40.55 36.47L43.2801 45.5" stroke="#769763" stroke-miterlimit="10" stroke-linecap="round" stroke-linejoin="round"/>
<path d="M47.3602 44.27L39.2102 46.73" stroke="#769763" stroke-miterlimit="10" stroke-linecap="round" stroke-linejoin="round"/>
<path d="M43.66 26.2L32.28 29.65" stroke="#769763" stroke-miterlimit="10" stroke-linecap="round" stroke-linejoin="round"/>
<path d="M29.4399 19.77V14" stroke="#769763" stroke-miterlimit="10" stroke-linecap="round" stroke-linejoin="round"/>
<path d="M32.28 20.4999L36.35 16.4199" stroke="#769763" stroke-miterlimit="10" stroke-linecap="round" stroke-linejoin="round"/>
<path d="M27.08 20.4999L23 16.4199" stroke="#769763" stroke-miterlimit="10" stroke-linecap="round" stroke-linejoin="round"/>
</svg>
