<svg width="61" height="61" viewBox="0 0 61 61" fill="none" xmlns="http://www.w3.org/2000/svg">
<path d="M27.3845 29.3502V27.2502H30.4545V29.3502H32.9945L30.8545 32.5902H27.9945V30.8402L27.3845 29.3502Z" stroke="#769763" stroke-miterlimit="10" stroke-linecap="round" stroke-linejoin="round"/>
<path d="M37.2845 24.5902V27.3702L38.9745 28.4602H41.6945C41.8945 27.6702 42.0045 26.8402 42.0045 25.9902C42.0045 21.5102 39.1145 17.7202 35.1045 16.3402V20.8502L37.2845 24.5902Z" stroke="#769763" stroke-miterlimit="10" stroke-linecap="round" stroke-linejoin="round"/>
<path d="M24.2445 27.2502H27.1445V24.4702L29.1345 22.3102H31.1245L30.0345 19.7602H27.1345V16.9102C24.2645 18.3802 22.1945 21.1702 21.7045 24.4702H23.0245L24.2445 27.2502Z" stroke="#769763" stroke-miterlimit="10" stroke-linecap="round" stroke-linejoin="round"/>
<path d="M38.9745 28.4502L37.2845 27.3602V24.5902L35.1145 20.8502V16.3302C34.0745 15.9702 32.9645 15.7702 31.8045 15.7702C30.1245 15.7702 28.5445 16.1802 27.1445 16.9002V19.7502H30.0445L31.1345 22.3002H29.1445L27.1545 24.4602V27.2402H24.2445L23.0345 24.4602H21.7145C21.6445 24.9602 21.5945 25.4602 21.5945 25.9802C21.5945 31.6202 26.1645 36.1902 31.8045 36.1902C36.5945 36.1902 40.5945 32.8902 41.7045 28.4502H38.9745V28.4502Z" stroke="#769763" stroke-miterlimit="10" stroke-linecap="round" stroke-linejoin="round"/>
<path d="M44.5345 41.0002C42.6345 38.5202 44.5345 36.6002 44.5345 36.6002H19.8745C19.8745 36.6002 17.9745 38.5302 19.8745 41.0002H44.5345Z" stroke="#769763" stroke-miterlimit="10" stroke-linecap="round" stroke-linejoin="round"/>
<path d="M33.2545 36.6002C33.2545 36.6002 31.3545 38.5302 33.2545 41.0002" stroke="#769763" stroke-miterlimit="10" stroke-linecap="round" stroke-linejoin="round"/>
<path d="M43.6945 38.8002H36.0945" stroke="#769763" stroke-miterlimit="10" stroke-linecap="round" stroke-linejoin="round"/>
<path d="M42.0044 45.4101C40.1044 42.9301 42.0044 41.0101 42.0044 41.0101H17.3444C17.3444 41.0101 15.4444 42.9401 17.3444 45.4101H42.0044V45.4101Z" stroke="#769763" stroke-miterlimit="10" stroke-linecap="round" stroke-linejoin="round"/>
<path d="M30.7244 41.0002C30.7244 41.0002 28.8244 42.9302 30.7244 45.4002" stroke="#769763" stroke-miterlimit="10" stroke-linecap="round" stroke-linejoin="round"/>
<path d="M41.1645 43.2102H33.5645" stroke="#769763" stroke-miterlimit="10" stroke-linecap="round" stroke-linejoin="round"/>
</svg>
