<svg width="61" height="61" viewBox="0 0 61 61" fill="none" xmlns="http://www.w3.org/2000/svg">
<path d="M36.884 50.5523H23.096L19.7 19.6883H40.28L36.884 50.5523Z" stroke="#769763" stroke-miterlimit="10" stroke-linecap="round" stroke-linejoin="round"/>
<path d="M32.276 48.1763L36.956 11.1563H42.428" stroke="#769763" stroke-miterlimit="10" stroke-linecap="round" stroke-linejoin="round"/>
<path d="M20.288 25.0163H39.596" stroke="#769763" stroke-miterlimit="10" stroke-linecap="round" stroke-linejoin="round"/>
<path d="M28.964 39.9203C29.8984 39.9203 30.656 39.1628 30.656 38.2283C30.656 37.2939 29.8984 36.5363 28.964 36.5363C28.0295 36.5363 27.272 37.2939 27.272 38.2283C27.272 39.1628 28.0295 39.9203 28.964 39.9203Z" stroke="#769763" stroke-miterlimit="10" stroke-linecap="round" stroke-linejoin="round"/>
<path d="M26.5759 33.3203C27.8219 33.3203 28.8319 32.3103 28.8319 31.0643C28.8319 29.8184 27.8219 28.8083 26.5759 28.8083C25.33 28.8083 24.3199 29.8184 24.3199 31.0643C24.3199 32.3103 25.33 33.3203 26.5759 33.3203Z" stroke="#769763" stroke-miterlimit="10" stroke-linecap="round" stroke-linejoin="round"/>
</svg>
