<svg width="61" height="61" viewBox="0 0 61 61" fill="none" xmlns="http://www.w3.org/2000/svg">
<path d="M48.07 28.0402L43.59 23.6102V17.7702H48.07V28.0402Z" stroke="#769763" stroke-miterlimit="10"/>
<path d="M32.98 44.1301C32.98 41.1201 31.23 38.5201 28.69 37.2901C29.97 36.3001 30.8 34.7501 30.8 33.0101C30.8 30.0201 28.37 27.5901 25.38 27.5901C22.39 27.5901 19.96 30.0201 19.96 33.0101C19.96 34.7501 20.79 36.3001 22.07 37.2901C19.53 38.5201 17.78 41.1201 17.78 44.1301" stroke="#769763" stroke-miterlimit="10"/>
<path d="M44.59 44.1301C44.59 41.8501 43.26 39.8901 41.35 38.9601C42.32 38.2101 42.94 37.0401 42.94 35.7201C42.94 33.4601 41.11 31.6301 38.85 31.6301C36.59 31.6301 34.76 33.4601 34.76 35.7201C34.76 37.0401 35.39 38.2101 36.35 38.9601C34.43 39.8901 33.11 41.8501 33.11 44.1301" stroke="#769763" stroke-miterlimit="10"/>
<path d="M47.5 44.7002V33.5102H50.44V30.5602L39.46 19.4002H22.48L11.5 30.5602V33.5102H14.45V44.7002" stroke="#769763" stroke-miterlimit="10"/>
</svg>
