<svg width="61" height="61" viewBox="0 0 61 61" fill="none" xmlns="http://www.w3.org/2000/svg">
<path d="M34.52 41.5402C30.14 41.9502 29.13 35.5702 33.42 34.6002C31.68 30.5602 37.43 27.6202 39.68 31.4102C42.99 28.5002 47.55 33.0702 44.65 36.3802C48.44 38.6202 45.5 44.3802 41.46 42.6402C40.49 46.9402 34.11 45.9302 34.52 41.5402Z" stroke="#769763" stroke-miterlimit="10"/>
<path d="M38.7999 39.1201C39.8272 39.1201 40.6599 38.2874 40.6599 37.2601C40.6599 36.2329 39.8272 35.4001 38.7999 35.4001C37.7727 35.4001 36.9399 36.2329 36.9399 37.2601C36.9399 38.2874 37.7727 39.1201 38.7999 39.1201Z" stroke="#769763" stroke-miterlimit="10"/>
<path d="M40.12 35.9402L41.82 34.2402" stroke="#769763" stroke-miterlimit="10" stroke-linecap="round" stroke-linejoin="round"/>
<path d="M40.59 38.4102L42.75 39.4702" stroke="#769763" stroke-miterlimit="10" stroke-linecap="round" stroke-linejoin="round"/>
<path d="M36.75 33.4602L37.8 35.6302" stroke="#769763" stroke-miterlimit="10" stroke-linecap="round" stroke-linejoin="round"/>
<path d="M34.25 38.1202L36.64 37.8502" stroke="#769763" stroke-miterlimit="10" stroke-linecap="round" stroke-linejoin="round"/>
<path d="M37.95 41.8202L38.21 39.4202" stroke="#769763" stroke-miterlimit="10" stroke-linecap="round" stroke-linejoin="round"/>
<path d="M39.6799 31.4202L39.0699 35.4202" stroke="#769763" stroke-miterlimit="10" stroke-linecap="round" stroke-linejoin="round"/>
<path d="M33.4199 34.6102L37.0599 36.6202" stroke="#769763" stroke-miterlimit="10" stroke-linecap="round" stroke-linejoin="round"/>
<path d="M34.52 41.5402L37.49 38.5802" stroke="#769763" stroke-miterlimit="10"/>
<path d="M41.46 42.6402L39.71 38.8802" stroke="#769763" stroke-miterlimit="10"/>
<path d="M44.65 36.3802L40.64 36.9902" stroke="#769763" stroke-miterlimit="10"/>
<path d="M19.03 25.1202C15.64 22.3102 19.44 17.0802 23.16 19.4402C24.78 15.3502 30.93 17.3502 29.84 21.6102C34.23 21.8902 34.23 28.3502 29.84 28.6302C30.93 32.8902 24.78 34.8902 23.16 30.8002C19.44 33.1602 15.64 27.9302 19.03 25.1202Z" stroke="#769763" stroke-miterlimit="10"/>
<path d="M25.09 26.9802C26.1172 26.9802 26.95 26.1474 26.95 25.1202C26.95 24.0929 26.1172 23.2602 25.09 23.2602C24.0627 23.2602 23.23 24.0929 23.23 25.1202C23.23 26.1474 24.0627 26.9802 25.09 26.9802Z" stroke="#769763" stroke-miterlimit="10"/>
<path d="M26.95 25.1202H29.36" stroke="#769763" stroke-miterlimit="10" stroke-linecap="round" stroke-linejoin="round"/>
<path d="M25.54 27.2002L26.3201 29.4702" stroke="#769763" stroke-miterlimit="10" stroke-linecap="round" stroke-linejoin="round"/>
<path d="M26.3201 20.9802L25.54 23.2602" stroke="#769763" stroke-miterlimit="10" stroke-linecap="round" stroke-linejoin="round"/>
<path d="M21.26 22.5102L23.14 24.0102" stroke="#769763" stroke-miterlimit="10" stroke-linecap="round" stroke-linejoin="round"/>
<path d="M21.26 27.7402L23.14 26.2302" stroke="#769763" stroke-miterlimit="10" stroke-linecap="round" stroke-linejoin="round"/>
<path d="M29.8401 21.6102L26.5701 24.0102" stroke="#769763" stroke-miterlimit="10" stroke-linecap="round" stroke-linejoin="round"/>
<path d="M23.16 19.4402L24.31 23.4302" stroke="#769763" stroke-miterlimit="10" stroke-linecap="round" stroke-linejoin="round"/>
<path d="M19.03 25.1202H23.22" stroke="#769763" stroke-miterlimit="10"/>
<path d="M23.16 30.8002L24.59 26.9102" stroke="#769763" stroke-miterlimit="10"/>
<path d="M29.84 28.6302L26.58 26.2302" stroke="#769763" stroke-miterlimit="10"/>
<path d="M26.16 38.1002C26.16 38.1002 24.08 40.9702 20.86 41.7202C17.64 42.4702 14.5 40.8302 14.5 40.8302C14.5 40.8302 16.58 37.9602 19.8 37.2102C23.02 36.4602 26.16 38.1002 26.16 38.1002Z" stroke="#769763" stroke-miterlimit="10"/>
<path d="M38.04 26.2002C38.04 26.2002 37.33 22.7302 38.95 19.8502C40.57 16.9702 43.9 15.7702 43.9 15.7702C43.9 15.7702 44.6101 19.2402 42.9901 22.1202C41.3701 25.0002 38.04 26.2002 38.04 26.2002Z" stroke="#769763" stroke-miterlimit="10"/>
</svg>
