<svg width="108" height="64" viewBox="0 0 108 64" fill="none" xmlns="http://www.w3.org/2000/svg">
<g clip-path="url(#clip0_4943_881)">
<path d="M34.5146 5.14909C32.4622 5.14909 30.7529 5.32358 28.6433 5.01199C25.5043 4.80634 22.1874 4.98083 19.2199 6.0714C16.7418 6.98747 14.4733 8.67629 13.3422 11.0257C13.6218 9.43034 13.9967 7.84123 14.6893 6.37676C15.3819 4.91228 16.405 3.55998 17.7839 2.67507C18.9848 1.90232 20.4399 1.49726 21.876 1.54088C24.0746 1.61566 26.0507 2.6626 27.9952 3.55375C30.0921 4.51345 32.1826 5.1304 34.5146 5.14909Z" fill="#F1D675"/>
<path d="M7.45167 52.8274C7.2674 52.8274 7.07677 52.7589 6.93062 52.6218C-0.592826 45.692 -0.85335 38.0892 1.41512 33.2845C2.48899 30.9974 4.23006 28.9659 5.90758 27.0029C6.86708 25.8811 7.76938 24.828 8.55731 23.7312C10.2857 21.3257 11.4612 18.3406 11.9505 15.1001L12.103 14.0719C12.8591 8.88701 13.8949 1.78276 20.5605 0.879146C23.242 0.517701 25.2309 1.45247 27.3405 2.44333C29.3675 3.39679 31.4644 4.38142 34.5145 4.41258C34.9339 4.41881 35.277 4.75533 35.2706 5.16662C35.2643 5.57792 34.9275 5.90821 34.5081 5.90821H34.5018C31.1149 5.87082 28.7575 4.76156 26.686 3.78316C24.7098 2.85463 23.0005 2.05072 20.7766 2.34985C15.2547 3.09767 14.346 9.29831 13.6217 14.2775L13.4692 15.312C12.9418 18.7831 11.6773 21.9863 9.81545 24.5849C8.9894 25.7316 8.02355 26.8658 7.08948 27.9563C5.47549 29.8446 3.80432 31.8013 2.81306 33.9015C-0.300529 40.5072 3.44213 47.3372 7.98543 51.525C8.29043 51.8054 8.30949 52.279 8.0172 52.5844C7.85199 52.7464 7.65501 52.8274 7.45167 52.8274Z" fill="#769763"/>
<path d="M7.44547 52.8286C7.09599 52.8286 6.77828 52.5918 6.70203 52.2428C4.60512 42.9138 10.5718 38.6824 10.8259 38.5079C14.9499 35.2113 17.3581 31.9521 17.3835 29.584C17.3899 28.7053 17.0722 28.0136 16.4113 27.4589C15.6107 26.7921 14.4606 26.761 13.3422 27.3842C11.6139 28.3439 9.86009 31.0048 10.5845 35.3609C10.6544 35.7659 10.3684 36.1523 9.95541 36.2209C9.53603 36.2894 9.14842 36.009 9.07852 35.6039C8.22705 30.4876 10.4383 27.2782 12.5924 26.0817C14.2636 25.1532 16.1063 25.2467 17.3962 26.3185C18.4002 27.1536 18.9213 28.2878 18.9086 29.5964C18.8768 32.4444 16.3351 36.0339 11.7473 39.6982C11.4868 39.8852 6.32077 43.5931 8.19528 51.9188C8.28424 52.3238 8.02371 52.7227 7.61704 52.8099C7.55985 52.8224 7.50266 52.8286 7.44547 52.8286Z" fill="#769763"/>
<path d="M10.343 63.0799C9.92365 63.0799 9.58052 62.7434 9.58052 62.3321C9.58052 61.5033 9.56146 60.6558 9.5424 59.8082C9.45979 55.9196 9.37083 51.9063 10.9594 48.2233C11.957 45.9051 13.7044 44.2599 15.401 42.6708C18.4701 39.7854 20.0714 37.3924 20.9292 34.3949C22.0603 30.4502 22.5305 25.8511 22.3272 20.7224C22.0666 14.2413 23.5154 9.57369 26.6354 6.84416C30.1556 3.76565 34.4511 4.3826 34.629 4.40753C35.0484 4.46984 35.328 4.85622 35.2645 5.26128C35.2009 5.66635 34.8133 5.95301 34.3939 5.88446C34.3558 5.87823 30.6004 5.36099 27.6266 7.97212C24.8752 10.3901 23.6044 14.6588 23.8458 20.6601C24.0555 25.9446 23.5663 30.6995 22.3971 34.7938C21.2342 38.8507 18.737 41.5927 16.4558 43.7426C14.8037 45.2944 13.2406 46.7651 12.3637 48.7966C10.9086 52.1867 10.9912 56.0442 11.0674 59.7708C11.0865 60.6308 11.1055 61.4846 11.1055 62.3259C11.1055 62.7496 10.7624 63.0799 10.343 63.0799Z" fill="#769763"/>
<path d="M46.0413 43.026C45.6219 43.026 45.2788 42.6895 45.2788 42.2782V20.9903C45.2788 20.579 45.6219 20.2425 46.0413 20.2425C46.4607 20.2425 46.8038 20.579 46.8038 20.9903V42.2782C46.8038 42.6895 46.4607 43.026 46.0413 43.026Z" fill="#769763"/>
<path d="M50.9214 28.5869H46.0413C45.6219 28.5869 45.2788 28.2504 45.2788 27.8391C45.2788 27.4278 45.6219 27.0913 46.0413 27.0913H50.9214C52.4273 27.0913 53.6537 25.8885 53.6537 24.4178C53.6537 22.9409 52.4273 21.7382 50.9214 21.7382H46.0413C45.6219 21.7382 45.2788 21.4016 45.2788 20.9903C45.2788 20.579 45.6219 20.2425 46.0413 20.2425H50.9214C53.2661 20.2425 55.1787 22.1121 55.1787 24.4178C55.1787 26.7236 53.2661 28.5869 50.9214 28.5869Z" fill="#769763"/>
<path d="M55.1025 43.026C54.7594 43.026 54.4416 42.7954 54.359 42.4527L50.8642 28.0136C50.7689 27.6085 51.023 27.2097 51.4297 27.11C51.8427 27.0165 52.2494 27.2658 52.3511 27.6646L55.8459 42.1037C55.9412 42.5088 55.6871 42.9076 55.2804 43.0073C55.2232 43.0198 55.1597 43.026 55.1025 43.026Z" fill="#769763"/>
<path d="M76.7451 43.2254C75.1628 43.2254 73.8221 42.0663 73.6251 40.527L71.1406 21.2832C71.0898 20.8719 71.3821 20.498 71.8014 20.4482C72.2208 20.3921 72.6021 20.685 72.6529 21.0963L75.1438 40.3463C75.2455 41.1378 75.9381 41.736 76.7514 41.736C77.5648 41.736 78.251 41.1378 78.3527 40.3463L80.8372 21.1025C80.888 20.6912 81.2693 20.3983 81.6887 20.4544C82.1081 20.5043 82.4003 20.8782 82.3495 21.2895L79.865 40.5333C79.668 42.0663 78.3273 43.2254 76.7451 43.2254Z" fill="#769763"/>
<path d="M107.074 43.2254H98.7689C98.3495 43.2254 98.0064 42.8889 98.0064 42.4776V21.3954C98.0064 20.9841 98.3495 20.6476 98.7689 20.6476C99.1883 20.6476 99.5314 20.9841 99.5314 21.3954V41.7298H107.068C107.487 41.7298 107.83 42.0663 107.83 42.4776C107.83 42.8889 107.493 43.2254 107.074 43.2254Z" fill="#769763"/>
<path d="M66.7943 32.3821H60.6625C60.2431 32.3821 59.9 32.0456 59.9 31.6343C59.9 31.223 60.2431 30.8864 60.6625 30.8864H66.7943C67.2137 30.8864 67.5569 31.223 67.5569 31.6343C67.5569 32.0456 67.2137 32.3821 66.7943 32.3821Z" fill="#F1D675"/>
<path d="M68.5036 43.026C68.1224 43.026 67.7983 42.7518 67.7475 42.3716L65.2629 23.1278C65.1613 22.3364 64.4687 21.7382 63.6553 21.7382C62.842 21.7382 62.1557 22.3364 62.0477 23.1278L59.5759 42.3716C59.525 42.7829 59.1374 43.0758 58.7244 43.0197C58.305 42.9699 58.0127 42.596 58.0636 42.1847L60.5481 22.9409C60.7451 21.4016 62.0858 20.2425 63.668 20.2425C65.2502 20.2425 66.591 21.4016 66.788 22.9409L69.2725 42.1847C69.3233 42.596 69.031 42.9699 68.6116 43.0197C68.5672 43.0197 68.5354 43.026 68.5036 43.026Z" fill="#769763"/>
<path d="M92.3829 31.5657H86.0795C85.6601 31.5657 85.317 31.2292 85.317 30.8179C85.317 30.4066 85.6601 30.0701 86.0795 30.0701H92.3829C92.8023 30.0701 93.1454 30.4066 93.1454 30.8179C93.1454 31.2292 92.8023 31.5657 92.3829 31.5657Z" fill="#F1D675"/>
<path d="M93.5904 43.0945H86.086C85.6666 43.0945 85.3235 42.758 85.3235 42.3467V21.4702C85.3235 21.0589 85.6666 20.7224 86.086 20.7224H93.387C93.8064 20.7224 94.1495 21.0589 94.1495 21.4702C94.1495 21.8815 93.8064 22.218 93.387 22.218H86.8485V41.5989H93.5904C94.0097 41.5989 94.3529 41.9354 94.3529 42.3467C94.3529 42.758 94.0097 43.0945 93.5904 43.0945Z" fill="#769763"/>
<path d="M37.4821 43.026C37.0627 43.026 36.7196 42.6895 36.7196 42.2782V20.9903C36.7196 20.579 37.0627 20.2425 37.4821 20.2425C37.9015 20.2425 38.2446 20.579 38.2446 20.9903V42.2844C38.2446 42.6957 37.9015 43.026 37.4821 43.026Z" fill="#769763"/>
<path d="M42.0127 21.7382H32.9515C32.5321 21.7382 32.189 21.4016 32.189 20.9903C32.189 20.579 32.5321 20.2425 32.9515 20.2425H42.0127C42.4321 20.2425 42.7752 20.579 42.7752 20.9903C42.7752 21.4016 42.4384 21.7382 42.0127 21.7382Z" fill="#769763"/>
<path d="M39.8077 51.2582C39.7442 51.2021 39.7124 51.1336 39.7124 51.0526C39.7124 50.9591 39.7506 50.8843 39.8268 50.8344C39.9031 50.7784 39.992 50.7472 40.0873 50.7472C40.0937 50.7472 40.1 50.7472 40.1 50.7472C40.2017 50.7534 40.2907 50.7846 40.3669 50.8469C41.0341 51.4015 41.5552 51.9188 41.9301 52.4048C41.9809 52.4734 42.0063 52.5482 42.0063 52.623C42.0063 52.6479 42.0063 52.6728 42 52.6977C41.9872 52.7975 41.9301 52.8847 41.8411 52.9532C41.7776 53.0031 41.7077 53.028 41.6314 53.028C41.606 53.028 41.5806 53.028 41.5552 53.0218C41.4535 53.0031 41.3709 52.947 41.3073 52.8598C41.2311 52.7538 41.1421 52.6417 41.0468 52.5295C41.0214 52.4983 40.9896 52.4859 40.9579 52.4921C40.3351 52.5233 38.6068 52.5918 35.7855 52.7102C35.7791 52.7102 35.7728 52.7102 35.7728 52.7102C35.6775 52.7102 35.5949 52.679 35.525 52.623C35.4424 52.5482 35.3979 52.4547 35.3979 52.3425C35.3979 52.2615 35.4297 52.1867 35.4868 52.1244C35.5504 52.0496 35.633 52.0122 35.7347 52.006L36.4718 51.9811C36.5035 51.9811 36.5353 51.9686 36.5544 51.9375C36.9293 51.3766 37.2597 50.7784 37.5583 50.1489C37.6092 50.0492 37.6854 49.9682 37.7998 49.9246C37.857 49.8997 37.9205 49.8872 37.9777 49.8872C38.0285 49.8872 38.0794 49.8934 38.1239 49.9121C38.2255 49.9433 38.3018 50.0118 38.3399 50.1178C38.359 50.1614 38.3717 50.205 38.3717 50.2487C38.3717 50.3047 38.359 50.3546 38.3272 50.4107C38.0286 50.9404 37.7235 51.4389 37.4058 51.9063C37.3995 51.9188 37.3995 51.925 37.4058 51.9375C37.4122 51.9499 37.4185 51.9499 37.4313 51.9499C39.3502 51.8751 40.3288 51.8378 40.3733 51.8378C40.386 51.8378 40.3923 51.8315 40.3987 51.8253C40.405 51.8191 40.3987 51.8066 40.3923 51.7941C40.1763 51.5947 39.9857 51.414 39.8077 51.2582ZM36.5988 56.6861C36.4972 56.6861 36.4146 56.6487 36.3447 56.5801C36.2748 56.5116 36.2366 56.4244 36.2366 56.3309V53.9129C36.2366 53.7883 36.2811 53.6886 36.3701 53.6076C36.459 53.5266 36.5607 53.483 36.6814 53.483H40.71C40.8308 53.483 40.9324 53.5266 41.0214 53.6076C41.1104 53.6886 41.1548 53.7945 41.1548 53.9129V56.306C41.1548 56.4057 41.1167 56.4929 41.0405 56.5677C40.9642 56.6425 40.8753 56.6799 40.7736 56.6799H40.6719C40.5957 56.6799 40.5258 56.6549 40.4686 56.5988C40.4114 56.5428 40.386 56.4804 40.386 56.4119C40.386 56.387 40.3733 56.3745 40.3542 56.3745H37.0055C36.9865 56.3745 36.9737 56.387 36.9737 56.4119C36.9737 56.4867 36.9483 56.5552 36.8911 56.6113C36.8339 56.6674 36.7641 56.6923 36.6878 56.6923H36.5988V56.6861ZM40.3733 54.1934C40.3733 54.1622 40.3542 54.1435 40.3224 54.1435H37.0182C36.9865 54.1435 36.9674 54.1622 36.9674 54.1934V55.6391C36.9674 55.6765 36.9865 55.6952 37.0182 55.6952H40.3224C40.3542 55.6952 40.3733 55.6765 40.3733 55.6391V54.1934Z" fill="#769763"/>
<path d="M48.8943 52.3737C48.9706 52.4298 49.0087 52.5046 49.0214 52.598C49.0278 52.6105 49.0278 52.6292 49.0278 52.6417C49.0278 52.7164 49.0024 52.7912 48.9452 52.8598C48.8943 52.9283 48.8244 52.9657 48.7355 52.9782C48.7228 52.9782 48.7101 52.9782 48.6974 52.9782C48.6211 52.9782 48.5512 52.9533 48.4877 52.9034C48.3161 52.7725 48.1255 52.6354 47.9158 52.5046C47.8459 52.4672 47.8014 52.4049 47.7887 52.3238C47.7823 52.3114 47.7823 52.2927 47.7823 52.274C47.7823 52.2179 47.8014 52.1618 47.8395 52.112C47.8967 52.0434 47.9666 51.9998 48.0556 51.9811C48.0874 51.9749 48.1128 51.9749 48.1382 51.9749C48.1954 51.9749 48.2526 51.9873 48.3097 52.0185C48.5385 52.1369 48.7355 52.2553 48.8943 52.3737ZM48.5766 56.2686C48.5449 56.3558 48.475 56.4119 48.386 56.4431C48.3542 56.4555 48.3161 56.4555 48.2843 56.4555C48.2271 56.4555 48.1763 56.4431 48.1255 56.4181C48.0365 56.362 47.973 56.2935 47.9412 56.2C47.9285 56.1564 47.9285 56.1128 47.9285 56.0754C47.9285 56.0193 47.9412 55.9694 47.9603 55.9134C48.2017 55.365 48.4368 54.7916 48.6592 54.1747C48.6847 54.0999 48.7355 54.0438 48.8181 54.0189C48.9007 53.994 48.9769 54.0002 49.0468 54.0438C49.1231 54.0999 49.1803 54.1685 49.2184 54.2619C49.2375 54.3118 49.2502 54.3616 49.2502 54.4053C49.2502 54.4489 49.2438 54.4925 49.2248 54.5361C49.0214 55.1468 48.8054 55.7202 48.5766 56.2686ZM49.0532 50.4668C49.1358 50.5291 49.1803 50.6101 49.1803 50.716C49.1803 50.8033 49.1485 50.8843 49.0913 50.9528C49.0341 51.0214 48.9642 51.0526 48.8689 51.0526H48.8626C48.78 51.0526 48.7037 51.0276 48.6402 50.9715C48.4877 50.8344 48.297 50.6911 48.0746 50.5415C48.0111 50.4979 47.973 50.4356 47.9603 50.3608C47.9476 50.286 47.9666 50.2113 48.0238 50.1489C48.081 50.0866 48.1572 50.0492 48.2462 50.0305C48.2589 50.0243 48.2843 50.0243 48.3097 50.0243C48.3733 50.0243 48.4368 50.043 48.494 50.0742C48.7037 50.205 48.888 50.3359 49.0532 50.4668ZM49.4154 52.4983C49.4281 52.4422 49.4599 52.3924 49.5107 52.3612C49.5488 52.3363 49.587 52.3238 49.6314 52.3238C49.6441 52.3238 49.6632 52.3238 49.6823 52.3301C49.7395 52.3425 49.7903 52.3675 49.8221 52.4235C49.8538 52.4796 49.8665 52.5295 49.8538 52.5856C49.7903 52.8411 49.7077 53.0654 49.6124 53.2586C49.587 53.3085 49.5488 53.3396 49.4916 53.3583C49.4345 53.377 49.3773 53.3708 49.3264 53.3459C49.2756 53.3209 49.2438 53.2835 49.2248 53.2275C49.2121 53.2025 49.2121 53.1776 49.2121 53.1527C49.2121 53.1215 49.2184 53.0966 49.2375 53.0654C49.3074 52.9034 49.3709 52.7102 49.4154 52.4983ZM49.4599 50.9279C49.409 50.8905 49.3836 50.8407 49.3773 50.7846C49.3709 50.7285 49.3836 50.6724 49.409 50.6226L49.4599 50.5478C49.4789 50.5166 49.5044 50.5042 49.5425 50.4979C49.5806 50.4917 49.6124 50.4979 49.6378 50.5229C49.6505 50.5291 49.6569 50.5229 49.6632 50.5166C49.7649 50.3359 49.8475 50.1739 49.9174 50.0243C49.9428 49.9682 49.9873 49.9246 50.0508 49.8997C50.0762 49.8872 50.1017 49.8872 50.1334 49.8872C50.1652 49.8872 50.1906 49.8934 50.2224 49.9121C50.2796 49.9371 50.3241 49.9807 50.3431 50.043C50.3622 50.1053 50.3558 50.1614 50.3177 50.2175C50.1715 50.4543 50.0635 50.6288 49.9873 50.741C49.9682 50.7721 49.9746 50.797 50 50.822C50.0318 50.8531 50.0762 50.8905 50.1271 50.9341C50.1525 50.9591 50.1715 50.9591 50.197 50.9279C50.2669 50.822 50.324 50.7223 50.3749 50.635C50.4067 50.5789 50.4511 50.5478 50.521 50.5229C50.5909 50.4979 50.6481 50.5104 50.7053 50.5478C50.7625 50.5789 50.8006 50.6288 50.8133 50.6911C50.826 50.7534 50.8133 50.8095 50.7752 50.8594C50.5592 51.1523 50.3622 51.4015 50.197 51.6072C50.1906 51.6196 50.1906 51.6259 50.197 51.6321C50.2033 51.6383 50.2097 51.6446 50.2224 51.6446L50.5719 51.6383C50.5909 51.6383 50.5973 51.6259 50.5973 51.6072C50.5909 51.5947 50.5846 51.576 50.5846 51.5573C50.5655 51.5137 50.5655 51.4701 50.5846 51.4265C50.6036 51.3828 50.6354 51.3579 50.6735 51.3455C50.7244 51.3268 50.7688 51.3268 50.8133 51.3392C50.8578 51.3517 50.8896 51.3891 50.9086 51.4327C50.9785 51.5823 51.0357 51.7443 51.0866 51.9063C51.0993 51.9624 51.0929 52.0123 51.0675 52.0559C51.0421 52.0995 51.004 52.1369 50.9531 52.1556L50.9277 52.1618C50.8896 52.1743 50.8515 52.1743 50.807 52.1556C50.7625 52.1369 50.7434 52.1057 50.7307 52.0621C50.7307 52.0496 50.7244 52.0372 50.7053 52.0372L50.4893 52.0496C50.4575 52.0559 50.4384 52.0746 50.4384 52.1057V53.3272C50.4384 53.3895 50.413 53.4456 50.3685 53.4892C50.3241 53.5328 50.2669 53.5577 50.2033 53.5577C50.1398 53.5577 50.0826 53.5328 50.0381 53.4892C49.9936 53.4456 49.9682 53.3895 49.9682 53.3272V52.1431C49.9682 52.1057 49.9492 52.087 49.9174 52.0933C49.803 52.1057 49.6696 52.112 49.5171 52.1244C49.4535 52.1307 49.3963 52.112 49.3455 52.0683C49.2947 52.0247 49.2692 51.9749 49.2565 51.9125C49.2502 51.8502 49.2692 51.7941 49.3137 51.7505C49.3582 51.7069 49.409 51.682 49.4662 51.682L49.6124 51.6757C49.6441 51.6757 49.6696 51.6633 49.6886 51.6383C49.7522 51.5636 49.8157 51.4888 49.8729 51.4015C49.8983 51.3704 49.8983 51.3454 49.8729 51.3143C49.7331 51.171 49.5997 51.0463 49.4599 50.9279ZM50.4956 55.097C50.4893 55.1095 50.4893 55.1157 50.502 55.1282C50.5147 55.1406 50.521 55.1468 50.5337 55.1468H53.9206C54.0349 55.1468 54.1303 55.1905 54.2065 55.2777C54.2637 55.34 54.2955 55.4086 54.2955 55.4896C54.2955 55.5145 54.2891 55.5395 54.2828 55.5706C54.1684 56.0567 54.0222 56.3745 53.838 56.5116C53.6918 56.6113 53.4821 56.6674 53.2152 56.6799C52.8658 56.6799 52.5735 56.6736 52.332 56.6674C52.2557 56.6674 52.1795 56.6425 52.1223 56.5864C52.0651 56.5303 52.0143 56.4618 51.9825 56.3807C51.9635 56.3247 51.9698 56.2748 52.0016 56.2249C52.0333 56.1751 52.0778 56.1502 52.1414 56.1564C52.44 56.1751 52.7323 56.1876 53.0119 56.1876C53.1708 56.1876 53.2788 56.1689 53.3423 56.1377C53.444 56.0629 53.533 55.9009 53.6028 55.6579C53.6028 55.6454 53.5965 55.6329 53.5901 55.6205C53.5838 55.608 53.5711 55.6018 53.5584 55.6018H50.3939C50.3749 55.6018 50.3622 55.6142 50.3558 55.6329C50.3431 55.689 50.305 55.7389 50.2542 55.77C50.2033 55.8012 50.1461 55.8136 50.0889 55.8012L49.9746 55.7887C49.8983 55.7763 49.8348 55.7389 49.7903 55.6641C49.7585 55.6205 49.7458 55.5768 49.7458 55.527C49.7458 55.5021 49.7522 55.4771 49.7585 55.446C49.8157 55.2715 49.8729 55.0721 49.9301 54.8477C49.9619 54.7231 50.0254 54.6234 50.1271 54.5486C50.2287 54.4738 50.3431 54.4302 50.4638 54.4302H53.2978C53.336 54.4302 53.355 54.4115 53.355 54.3741V54.1622C53.355 54.1311 53.336 54.1124 53.2978 54.1124H49.9746C49.9174 54.1124 49.8665 54.0937 49.8221 54.05C49.7776 54.0064 49.7585 53.9566 49.7585 53.9005C49.7585 53.8444 49.7776 53.7945 49.8221 53.7509C49.8665 53.7073 49.9174 53.6886 49.9746 53.6886H53.5774C53.6982 53.6886 53.7998 53.7322 53.8888 53.8195C53.9778 53.9067 54.0222 54.0064 54.0222 54.1248V54.424C54.0222 54.5424 53.9778 54.6421 53.8888 54.7293C53.7998 54.8166 53.6982 54.8602 53.5774 54.8602H50.6291C50.5909 54.8602 50.5655 54.8789 50.5528 54.91L50.4956 55.097ZM51.0484 52.9096C51.0611 52.9657 51.0484 53.0156 51.0167 53.0592C50.9849 53.1028 50.9468 53.1402 50.8896 53.1589C50.8387 53.1714 50.7943 53.1589 50.7498 53.134C50.7053 53.109 50.6799 53.0654 50.6672 53.0156C50.6418 52.8722 50.61 52.7227 50.5719 52.5793C50.5592 52.5233 50.5719 52.4796 50.5973 52.436C50.6227 52.3924 50.6608 52.3675 50.7117 52.355C50.7689 52.3425 50.8133 52.355 50.8578 52.3799C50.9023 52.4049 50.9341 52.4422 50.9468 52.4921C50.9849 52.623 51.0167 52.7663 51.0484 52.9096ZM52.7895 50.8469C52.7831 50.8407 52.7831 50.8469 52.7831 50.8531C52.7831 50.8843 52.7704 50.903 52.7514 50.9217C52.7323 50.9404 52.7069 50.9466 52.6751 50.9466H51.1628C51.1056 50.9466 51.0611 50.9279 51.023 50.8905C50.9849 50.8531 50.9658 50.8095 50.9658 50.7534C50.9658 50.6973 50.9849 50.6537 51.023 50.6163C51.0611 50.5789 51.112 50.5602 51.1628 50.5602H52.6624C52.6942 50.5602 52.7196 50.5727 52.745 50.5976C52.7704 50.6226 52.7831 50.6537 52.7831 50.6849H52.7895L52.8912 50.5478C52.9166 50.5228 52.9484 50.5104 52.9801 50.5042C53.0119 50.4979 53.0437 50.5042 53.0691 50.5291C53.0818 50.5353 53.0882 50.5291 53.0945 50.5229C53.1962 50.3546 53.2851 50.1863 53.3614 50.0243C53.3932 49.9682 53.4376 49.9246 53.4948 49.9059C53.5202 49.8934 53.5457 49.8934 53.5711 49.8934C53.6029 49.8934 53.641 49.8997 53.6727 49.9184C53.7299 49.9495 53.7617 49.9932 53.7808 50.0555C53.7998 50.1178 53.7871 50.1739 53.7553 50.23C53.6092 50.4668 53.4948 50.635 53.4122 50.7472C53.3932 50.7784 53.3932 50.8033 53.4186 50.8282C53.4694 50.8718 53.5139 50.9155 53.552 50.9591C53.5838 50.9902 53.6092 50.9902 53.6283 50.9591C53.7045 50.8469 53.7871 50.7285 53.8697 50.6039C53.9015 50.5478 53.9523 50.5104 54.0159 50.4917C54.0794 50.473 54.143 50.4855 54.2002 50.5166C54.2573 50.5478 54.2891 50.5976 54.3018 50.6599C54.3145 50.7223 54.3018 50.7784 54.2637 50.822C53.9905 51.1647 53.7744 51.4327 53.6092 51.6134C53.6028 51.6259 53.6028 51.6321 53.6092 51.6446C53.6156 51.657 53.6219 51.657 53.6346 51.6508L54.0858 51.6446C54.1048 51.6446 54.1112 51.6321 54.0985 51.6134C54.0858 51.5885 54.0794 51.5636 54.0667 51.5386C54.0413 51.495 54.0413 51.4514 54.054 51.4015C54.0667 51.3517 54.1048 51.3205 54.1493 51.3018C54.2001 51.2769 54.251 51.2769 54.3082 51.2894C54.3654 51.3018 54.4035 51.3392 54.4289 51.3891C54.5115 51.5386 54.5878 51.6944 54.6513 51.8565C54.6704 51.9125 54.6704 51.9686 54.6449 52.0247C54.6195 52.0808 54.5814 52.1182 54.5306 52.1431L54.4924 52.1556C54.4543 52.1743 54.4098 52.1743 54.3717 52.1556C54.3336 52.1369 54.3018 52.1057 54.2955 52.0621C54.2891 52.0496 54.2828 52.0372 54.2637 52.0372L53.9778 52.0621C53.946 52.0621 53.9269 52.0808 53.9269 52.1182V53.3209C53.9269 53.3832 53.9015 53.4393 53.857 53.483C53.8125 53.5266 53.7554 53.5515 53.6855 53.5515C53.6156 53.5515 53.5584 53.5266 53.5139 53.483C53.4694 53.4393 53.444 53.3832 53.444 53.3209V52.1431C53.444 52.1057 53.4249 52.087 53.3932 52.0933L52.9865 52.1182C52.9229 52.1244 52.8658 52.1057 52.8149 52.0621C52.7641 52.0185 52.7387 51.9686 52.7323 51.9063C52.726 51.844 52.745 51.7879 52.7831 51.7443C52.8213 51.7007 52.8721 51.6695 52.942 51.6695H53.031C53.0627 51.6695 53.0882 51.657 53.1072 51.6383C53.139 51.5947 53.1962 51.5262 53.2788 51.4265C53.3042 51.3953 53.3042 51.3704 53.2788 51.3392C53.1517 51.1772 52.9928 51.0152 52.7895 50.8469ZM51.614 53.4393C51.4932 53.4393 51.3916 53.3957 51.3026 53.3147C51.2136 53.2337 51.1692 53.1277 51.1692 53.0093V52.7663C51.1692 52.6417 51.2136 52.542 51.3026 52.4609C51.3916 52.3799 51.4932 52.3363 51.614 52.3363H52.1731C52.3002 52.3363 52.4019 52.3799 52.4845 52.4609C52.5671 52.542 52.6116 52.6479 52.6116 52.7663V53.0093C52.6116 53.134 52.5671 53.2337 52.4845 53.3147C52.4019 53.3957 52.2939 53.4393 52.1731 53.4393H51.614ZM52.4273 51.1834C52.4781 51.1834 52.5163 51.2021 52.5544 51.2333C52.5925 51.2644 52.6052 51.3081 52.6052 51.3579C52.6052 51.4078 52.5862 51.4452 52.5544 51.4825C52.5226 51.5199 52.4781 51.5324 52.4273 51.5324H51.3725C51.3217 51.5324 51.2835 51.5137 51.2454 51.4825C51.2073 51.4514 51.1946 51.4078 51.1946 51.3579C51.1946 51.3081 51.2136 51.2707 51.2454 51.2333C51.2772 51.1959 51.3217 51.1834 51.3725 51.1834H52.4273ZM51.3662 52.0995C51.3153 52.0995 51.2772 52.0808 51.2391 52.0496C51.2009 52.0185 51.1882 51.9749 51.1882 51.925C51.1882 51.8752 51.2073 51.8378 51.2391 51.8004C51.2708 51.763 51.3153 51.7505 51.3662 51.7505H52.421C52.4718 51.7505 52.5099 51.7692 52.548 51.8004C52.5862 51.8315 52.5989 51.8752 52.5989 51.925C52.5989 51.9749 52.5798 52.0123 52.548 52.0496C52.5163 52.087 52.4718 52.0995 52.421 52.0995H51.3662ZM52.3701 49.9745C52.421 49.9745 52.4591 49.9931 52.4972 50.0305C52.5353 50.0679 52.548 50.1116 52.548 50.1614C52.548 50.2113 52.529 50.2487 52.4972 50.286C52.4654 50.3234 52.421 50.3359 52.3701 50.3359H51.4233C51.3725 50.3359 51.328 50.3172 51.2899 50.286C51.2518 50.2549 51.2327 50.2113 51.2327 50.1614C51.2327 50.1116 51.2518 50.0679 51.2899 50.0305C51.328 49.9931 51.3725 49.9745 51.4233 49.9745H52.3701ZM51.6775 52.6791C51.6394 52.6791 51.6203 52.6977 51.6203 52.7351V53.0405C51.6203 53.0717 51.6394 53.0904 51.6775 53.0904H52.1096C52.1414 53.0904 52.1604 53.0717 52.1604 53.0405V52.7351C52.1604 52.6977 52.1414 52.6791 52.1096 52.6791H51.6775ZM52.8975 52.4983C52.9102 52.4422 52.9484 52.3924 52.9992 52.3612C53.05 52.3301 53.1072 52.3176 53.1644 52.3301C53.2216 52.3425 53.2724 52.3737 53.3042 52.4235C53.336 52.4734 53.3423 52.5295 53.3296 52.5856C53.2661 52.8348 53.1962 53.0467 53.1199 53.2212C53.0945 53.2773 53.05 53.3085 52.9928 53.3334C52.9357 53.3583 52.8785 53.3459 52.8276 53.3209C52.7704 53.2898 52.7387 53.2461 52.7133 53.1901C52.6878 53.134 52.6942 53.0779 52.7196 53.028C52.7895 52.8785 52.8467 52.704 52.8975 52.4983ZM54.1112 52.5669C54.0921 52.5233 54.0921 52.4796 54.1175 52.4298C54.143 52.3799 54.1747 52.3488 54.2256 52.3363C54.2828 52.3238 54.3336 52.3238 54.3844 52.3488C54.4353 52.3737 54.467 52.4111 54.4861 52.4609C54.575 52.6728 54.6449 52.8598 54.6958 53.0405C54.7021 53.0592 54.7021 53.0779 54.7021 53.0966C54.7021 53.1277 54.6894 53.1651 54.6704 53.1901C54.6386 53.2461 54.6005 53.2773 54.5433 53.2898C54.4924 53.3085 54.448 53.3085 54.3971 53.2773C54.3463 53.2461 54.3209 53.2088 54.3018 53.1589C54.251 52.9782 54.1874 52.7788 54.1112 52.5669Z" fill="#769763"/>
<path d="M66.3114 55.9944H66.5782C66.6354 55.9944 66.6735 55.957 66.6926 55.876C66.7117 55.795 66.7307 55.6205 66.7434 55.3525C66.7434 55.2902 66.7689 55.2403 66.8261 55.2154C66.8832 55.1905 66.9404 55.1842 67.004 55.2092C67.0866 55.2403 67.1501 55.2964 67.1946 55.3712C67.2391 55.4273 67.2645 55.4958 67.2645 55.5706C67.2645 55.9134 67.2073 56.1813 67.0866 56.3683C66.9976 56.4991 66.8515 56.5677 66.6545 56.5677H66.2097C65.9619 56.5677 65.7967 56.5178 65.7141 56.4119C65.6315 56.306 65.5933 56.1065 65.5933 55.8137V54.3616C65.5933 54.3242 65.5743 54.3056 65.5361 54.3056H65.2438C65.2121 54.3056 65.1867 54.3242 65.1867 54.3616C65.1549 54.8851 65.0659 55.3213 64.9325 55.6516C64.799 55.9819 64.5639 56.2623 64.2462 56.4742C64.17 56.5178 64.1001 56.5428 64.0238 56.5428C63.9921 56.5428 63.9539 56.5365 63.9094 56.5303C63.7951 56.4992 63.6934 56.4306 63.6108 56.3309C63.5917 56.306 63.56 56.2935 63.5218 56.2935H61.3487C61.3169 56.2935 61.3042 56.306 61.3042 56.3309V56.3434C61.3042 56.4181 61.2788 56.4867 61.2216 56.5428C61.1644 56.5989 61.1009 56.6238 61.0183 56.6238C60.9357 56.6238 60.8721 56.5989 60.8149 56.5428C60.7577 56.4867 60.7323 56.4181 60.7323 56.3434V54.5611C60.7323 54.5486 60.726 54.5424 60.7196 54.5424C60.7133 54.5424 60.7006 54.5424 60.6942 54.5548C60.6688 54.586 60.6434 54.6234 60.6179 54.6545C60.5671 54.7106 60.5036 54.7418 60.4337 54.7355C60.3638 54.7293 60.3002 54.6982 60.2558 54.6358C60.2049 54.5735 60.1795 54.505 60.1795 54.424C60.1795 54.3367 60.2113 54.2557 60.2685 54.1872C60.5735 53.8132 60.8149 53.3645 61.0056 52.8411C61.0119 52.8286 61.0119 52.8162 60.9992 52.8037C60.9865 52.7912 60.9801 52.785 60.9674 52.785H60.8848C60.7577 52.785 60.6561 52.7414 60.5735 52.6604C60.4909 52.5793 60.4464 52.4734 60.4464 52.355V51.8191C60.4464 51.6944 60.4909 51.5947 60.5735 51.5137C60.6561 51.4327 60.7641 51.3891 60.8848 51.3891H61.4948C61.6219 51.3891 61.7236 51.4327 61.8062 51.5137C61.8888 51.5947 61.9333 51.7007 61.9333 51.8191V52.355C61.9333 52.4796 61.8888 52.5793 61.8062 52.6604C61.7236 52.7414 61.6156 52.785 61.4948 52.785H61.3805V52.7912C61.4376 52.8037 61.4758 52.8348 61.5012 52.8847C61.5266 52.9346 61.5266 52.9844 61.5075 53.028C61.4821 53.0966 61.4504 53.1838 61.4122 53.2835C61.4059 53.296 61.4059 53.3085 61.4186 53.3209C61.4313 53.3334 61.4376 53.3334 61.444 53.3334H62.0667C62.0985 53.3334 62.1239 53.3147 62.143 53.2835C62.2256 53.053 62.2764 52.8909 62.3018 52.785C62.3082 52.7788 62.3082 52.7788 62.3018 52.7788C62.2637 52.7788 62.2446 52.7601 62.2446 52.7289V51.8191C62.2446 51.6944 62.2891 51.5947 62.3781 51.5137C62.467 51.4327 62.5687 51.3891 62.6894 51.3891H63.3503C63.4774 51.3891 63.579 51.4327 63.6616 51.5137C63.7442 51.5947 63.7887 51.7007 63.7887 51.8191V52.355C63.7887 52.4796 63.7442 52.5793 63.6616 52.6604C63.579 52.7414 63.471 52.785 63.3503 52.785H62.5623C62.556 52.785 62.556 52.7912 62.556 52.7975C62.6513 52.8162 62.7149 52.8722 62.7593 52.9595C62.7784 52.9969 62.7911 53.0343 62.7911 53.0779C62.7911 53.1215 62.7784 53.1651 62.753 53.2088C62.7403 53.2337 62.7276 53.2586 62.7085 53.2898C62.7021 53.3022 62.7021 53.3147 62.7149 53.3272C62.7276 53.3396 62.7339 53.3396 62.7403 53.3396H63.5981C63.668 53.3396 63.7252 53.3646 63.776 53.4144C63.8268 53.4643 63.8459 53.5203 63.8459 53.5889C63.8459 53.6574 63.8205 53.7135 63.776 53.7634C63.7315 53.8132 63.668 53.8382 63.5981 53.8382H62.6577C62.6195 53.8382 62.6005 53.8569 62.6005 53.888V54.1435C62.6005 54.1809 62.6195 54.1996 62.6577 54.1996H63.471C63.5345 54.1996 63.5917 54.2183 63.6299 54.2619C63.668 54.3056 63.6934 54.3554 63.6934 54.4177C63.6934 54.48 63.6743 54.5299 63.6299 54.5735C63.5854 54.6171 63.5345 54.6358 63.471 54.6358H62.6577C62.6195 54.6358 62.6005 54.6545 62.6005 54.6919V54.9537C62.6005 54.9848 62.6195 55.0035 62.6577 55.0035H63.471C63.5345 55.0035 63.5917 55.0284 63.6299 55.0721C63.668 55.1157 63.6934 55.1655 63.6934 55.2279C63.6934 55.2902 63.6743 55.34 63.6299 55.3837C63.5854 55.4273 63.5345 55.4522 63.471 55.4522H62.6577C62.6195 55.4522 62.6005 55.4709 62.6005 55.5021V55.77C62.6005 55.8012 62.6195 55.8199 62.6577 55.8199H63.7061C63.7442 55.8199 63.7824 55.8323 63.8078 55.8635C63.8332 55.8947 63.8523 55.9321 63.8523 55.9757C63.8523 55.9881 63.8586 55.9944 63.8777 55.9819C64.1255 55.8136 64.3034 55.608 64.4051 55.3525C64.5067 55.097 64.5703 54.7667 64.5957 54.3616C64.6021 54.3305 64.583 54.3118 64.5512 54.3118C64.4432 54.3118 64.3479 54.2744 64.2716 54.1996C64.1954 54.1248 64.1573 54.0376 64.1573 53.9316V50.5478C64.1573 50.4231 64.2017 50.3234 64.2907 50.2424C64.3797 50.1614 64.4813 50.1178 64.6021 50.1178H66.4702C66.5909 50.1178 66.6926 50.1614 66.7816 50.2424C66.8705 50.3234 66.915 50.4294 66.915 50.5478V53.8756C66.915 54.0002 66.8705 54.0999 66.7816 54.1809C66.6926 54.2619 66.5909 54.3056 66.4702 54.3056H66.2669C66.2351 54.3056 66.216 54.3242 66.216 54.3616V55.8074C66.216 55.8884 66.2224 55.9445 66.2415 55.9694C66.2605 55.9944 66.2605 55.9944 66.3114 55.9944ZM61.552 51.1585C61.4948 51.2146 61.4186 51.2395 61.336 51.2395C61.2534 51.2395 61.1835 51.2146 61.1263 51.1585C61.0691 51.1024 61.0437 51.0339 61.0437 50.9528V50.8531C61.0437 50.822 61.0246 50.8033 60.9929 50.8033H60.5226C60.4527 50.8033 60.3956 50.7784 60.3447 50.7285C60.2939 50.6786 60.2685 50.6226 60.2685 50.554C60.2685 50.4855 60.2939 50.4294 60.3447 50.3795C60.3956 50.3297 60.4527 50.3047 60.5226 50.3047H60.9929C61.0246 50.3047 61.0437 50.286 61.0437 50.2549V50.1489C61.0437 50.0742 61.0691 50.0056 61.1263 49.9433C61.1835 49.881 61.2534 49.856 61.336 49.856C61.4186 49.856 61.4948 49.8872 61.552 49.9433C61.6092 49.9994 61.641 50.0679 61.641 50.1489V50.2487C61.641 50.2798 61.6537 50.2985 61.6855 50.2985H62.4988C62.5306 50.2985 62.5496 50.2798 62.5496 50.2487V50.1489C62.5496 50.0742 62.5814 50.0056 62.6386 49.9433C62.6958 49.881 62.772 49.856 62.8546 49.856C62.9373 49.856 63.0071 49.8872 63.0643 49.9433C63.1215 49.9994 63.1469 50.0679 63.1469 50.1489V50.2487C63.1469 50.2798 63.166 50.2985 63.1978 50.2985H63.6299C63.6998 50.2985 63.757 50.3234 63.8078 50.3733C63.8586 50.4231 63.884 50.4792 63.884 50.5478C63.884 50.6163 63.8586 50.6724 63.8078 50.7223C63.757 50.7721 63.6998 50.797 63.6299 50.797H63.1978C63.166 50.797 63.1469 50.8157 63.1469 50.8469V50.9466C63.1469 51.0276 63.1215 51.0962 63.0643 51.1523C63.0071 51.2083 62.9373 51.2333 62.8546 51.2333C62.772 51.2333 62.6958 51.2083 62.6386 51.1523C62.5814 51.0962 62.5496 51.0276 62.5496 50.9466V50.8469C62.5496 50.8157 62.5306 50.797 62.4988 50.797H61.6855C61.6537 50.797 61.641 50.8157 61.641 50.8469V50.9466C61.641 51.0339 61.6092 51.1024 61.552 51.1585ZM60.9611 51.8191C60.923 51.8191 60.9039 51.8378 60.9039 51.8752V52.2927C60.9039 52.3301 60.923 52.3488 60.9611 52.3488H61.3805C61.4186 52.3488 61.4376 52.3301 61.4376 52.2927V51.8752C61.4376 51.8378 61.4186 51.8191 61.3805 51.8191H60.9611ZM61.9396 54.1934C61.9778 54.1934 61.9968 54.1747 61.9968 54.1373V53.8818C61.9968 53.8506 61.9778 53.8319 61.9396 53.8319H61.3487C61.3106 53.8319 61.2915 53.8506 61.2915 53.8818V54.1373C61.2915 54.1747 61.3106 54.1934 61.3487 54.1934H61.9396ZM61.9396 54.9973C61.9778 54.9973 61.9968 54.9786 61.9968 54.9474V54.6857C61.9968 54.6483 61.9778 54.6296 61.9396 54.6296H61.3487C61.3106 54.6296 61.2915 54.6483 61.2915 54.6857V54.9474C61.2915 54.9786 61.3106 54.9973 61.3487 54.9973H61.9396ZM61.3487 55.4335C61.3106 55.4335 61.2915 55.4522 61.2915 55.4834V55.7513C61.2915 55.7825 61.3106 55.8012 61.3487 55.8012H61.9396C61.9778 55.8012 61.9968 55.7825 61.9968 55.7513V55.4834C61.9968 55.4522 61.9778 55.4335 61.9396 55.4335H61.3487ZM62.7657 51.8191C62.7339 51.8191 62.7149 51.8378 62.7149 51.8752V52.2927C62.7149 52.3301 62.7339 52.3488 62.7657 52.3488H63.2295C63.2677 52.3488 63.2867 52.3301 63.2867 52.2927V51.8752C63.2867 51.8378 63.2677 51.8191 63.2295 51.8191H62.7657ZM64.8054 50.7098C64.7673 50.7098 64.7482 50.7285 64.7482 50.7597V51.2769C64.7482 51.3143 64.7673 51.333 64.8054 51.333H66.1906C66.2224 51.333 66.2415 51.3143 66.2415 51.2769V50.7597C66.2415 50.7285 66.2224 50.7098 66.1906 50.7098H64.8054ZM64.8054 51.8689C64.7673 51.8689 64.7482 51.8876 64.7482 51.925V52.4485C64.7482 52.4796 64.7673 52.4983 64.8054 52.4983H66.1906C66.2224 52.4983 66.2415 52.4796 66.2415 52.4485V51.925C66.2415 51.8876 66.2224 51.8689 66.1906 51.8689H64.8054ZM64.8054 53.0467C64.7673 53.0467 64.7482 53.0654 64.7482 53.1028V53.6263C64.7482 53.6574 64.7673 53.6761 64.8054 53.6761H66.1906C66.2224 53.6761 66.2415 53.6574 66.2415 53.6263V53.1028C66.2415 53.0654 66.2224 53.0467 66.1906 53.0467H64.8054Z" fill="#769763"/>
<path d="M77.8253 56.0193H78.6895C78.8166 56.0193 78.8992 55.9632 78.9373 55.8573C78.9754 55.7513 79.0136 55.5145 79.0326 55.1593C79.039 55.0845 79.0771 55.0222 79.147 54.9848C79.2169 54.9474 79.2868 54.9412 79.363 54.9786C79.4647 55.0222 79.541 55.0908 79.6045 55.178C79.6553 55.2528 79.6807 55.3276 79.6807 55.4148C79.6807 55.4273 79.6807 55.446 79.6807 55.4584C79.6299 55.9383 79.541 56.2561 79.4139 56.4244C79.2868 56.5926 79.0644 56.6736 78.7594 56.6736H77.749C77.3741 56.6736 77.1263 56.6051 76.9992 56.4742C76.8722 56.3434 76.8086 56.0941 76.8086 55.7202V53.3147C76.8086 53.2835 76.7896 53.2648 76.7514 53.2648H75.6077C75.5759 53.2648 75.5505 53.2835 75.5505 53.3147C75.5187 53.6388 75.4806 53.9192 75.4361 54.156C75.3916 54.3928 75.3154 54.6421 75.2201 54.8976C75.1247 55.1531 75.004 55.3712 74.8579 55.5644C74.7117 55.7576 74.5274 55.9383 74.2923 56.1066C74.0572 56.2748 73.784 56.4306 73.4726 56.5552C73.4218 56.5739 73.371 56.5864 73.3265 56.5864C73.282 56.5864 73.2248 56.5739 73.1803 56.5552C73.0787 56.5241 72.9961 56.4555 72.9262 56.3683C72.8944 56.3184 72.8753 56.2686 72.8753 56.2125C72.8753 56.1876 72.8753 56.1626 72.8817 56.1377C72.9071 56.0567 72.9579 55.9944 73.0405 55.9632C73.3138 55.8635 73.5489 55.7389 73.7522 55.5955C73.9555 55.4522 74.1144 55.3027 74.2351 55.1531C74.3559 55.0035 74.4575 54.8228 74.5338 54.6109C74.61 54.399 74.6736 54.1996 74.7117 54.0064C74.7498 53.8132 74.7816 53.5827 74.807 53.3147C74.8134 53.2835 74.7943 53.2648 74.7562 53.2648H73.1994C73.1041 53.2648 73.0215 53.2337 72.9579 53.1651C72.8944 53.0966 72.8563 53.0218 72.8563 52.9283C72.8563 52.8349 72.888 52.7601 72.9579 52.6915C73.0278 52.623 73.1041 52.598 73.1994 52.598H75.7983C75.8364 52.598 75.8555 52.5793 75.8555 52.542V50.1739C75.8555 50.0742 75.8872 49.9931 75.9571 49.9246C76.027 49.856 76.1096 49.8249 76.2113 49.8249C76.313 49.8249 76.3956 49.856 76.4655 49.9246C76.5354 49.9931 76.5672 50.0742 76.5672 50.1739V52.542C76.5672 52.5793 76.5862 52.598 76.6243 52.598H79.2804C79.3757 52.598 79.4583 52.6292 79.5219 52.6915C79.5854 52.7538 79.6236 52.8349 79.6236 52.9283C79.6236 53.0218 79.5918 53.1028 79.5219 53.1651C79.452 53.2275 79.3757 53.2648 79.2804 53.2648H77.5902C77.5521 53.2648 77.533 53.2835 77.533 53.3147V55.7202C77.533 55.8448 77.5521 55.9196 77.5902 55.9632C77.6283 56.0068 77.6919 56.0193 77.8253 56.0193ZM74.8388 51.6383C74.8515 51.6757 74.8642 51.7194 74.8642 51.763C74.8642 51.8191 74.8515 51.8689 74.8261 51.9188C74.7816 52.0123 74.7117 52.0746 74.61 52.1182C74.5719 52.1307 74.5338 52.1431 74.4893 52.1431C74.4385 52.1431 74.3876 52.1307 74.3432 52.1057C74.2542 52.0621 74.1907 51.9936 74.1589 51.9001C74.0191 51.5262 73.8285 51.1211 73.5934 50.6973C73.5679 50.6537 73.5552 50.6101 73.5552 50.5665C73.5552 50.5353 73.5616 50.4979 73.5679 50.4668C73.5997 50.3858 73.6569 50.3297 73.7395 50.2985C73.7903 50.2798 73.8412 50.2673 73.8857 50.2673C73.9301 50.2673 73.9746 50.2736 74.0191 50.2923C74.1144 50.3234 74.1907 50.3858 74.2415 50.4668C74.502 50.8781 74.699 51.2707 74.8388 51.6383ZM78.2066 50.4543C78.251 50.3546 78.3209 50.286 78.4162 50.2424C78.4734 50.2113 78.5243 50.1988 78.5815 50.1988C78.6259 50.1988 78.6704 50.2113 78.7149 50.23C78.8166 50.2611 78.8865 50.3297 78.9246 50.4169C78.9437 50.4605 78.9564 50.5042 78.9564 50.5478C78.9564 50.6039 78.9437 50.6537 78.9182 50.7036C78.6704 51.1897 78.4417 51.6072 78.2256 51.9437C78.1748 52.0185 78.1049 52.0746 78.0096 52.1057C77.9715 52.1182 77.927 52.1182 77.8825 52.1182C77.838 52.1182 77.7935 52.112 77.7427 52.0933C77.6664 52.0621 77.6093 52.006 77.5775 51.925C77.5648 51.8939 77.5648 51.8689 77.5648 51.8378C77.5648 51.7879 77.5775 51.7443 77.6029 51.7007C77.8253 51.2956 78.0286 50.8843 78.2066 50.4543Z" fill="#769763"/>
<path d="M87.4901 53.0779C87.5219 53.0717 87.5473 53.0717 87.5727 53.0717C87.6299 53.0717 87.6807 53.0841 87.7316 53.1153C87.8078 53.1652 87.8459 53.2275 87.8587 53.3147C87.865 53.3334 87.865 53.3521 87.865 53.3708C87.865 53.4394 87.8459 53.5017 87.8078 53.5702C87.7506 53.645 87.6807 53.7011 87.5918 53.726L87.0135 53.8943C86.9754 53.9067 86.9563 53.9254 86.9563 53.9628V55.9196C86.9563 56.1066 86.9373 56.2499 86.8928 56.3496C86.8483 56.4493 86.7721 56.5241 86.6641 56.574C86.5052 56.6487 86.2637 56.6861 85.9333 56.6986H85.927C85.8316 56.6986 85.749 56.6674 85.6728 56.6113C85.5965 56.549 85.5393 56.468 85.5076 56.3683C85.4822 56.2935 85.4949 56.225 85.5393 56.1627C85.5838 56.1003 85.6474 56.0692 85.7236 56.0692C85.7935 56.0754 85.8571 56.0754 85.9079 56.0754C85.9969 56.0754 86.0667 56.0754 86.1112 56.0692C86.1684 56.0692 86.2002 56.0567 86.2256 56.038C86.251 56.0193 86.2574 55.9819 86.2574 55.9196V54.1685C86.2574 54.156 86.251 54.1435 86.2447 54.1373C86.2383 54.1311 86.2193 54.1311 86.2065 54.1311C86.054 54.1747 85.8761 54.2246 85.6791 54.2744C85.6474 54.2869 85.6156 54.2869 85.5838 54.2869C85.5266 54.2869 85.4695 54.2682 85.4123 54.237C85.3297 54.1872 85.2725 54.1186 85.247 54.0251C85.2343 53.994 85.2343 53.9691 85.2343 53.9379C85.2343 53.8818 85.2534 53.8195 85.2852 53.7634C85.336 53.6886 85.4059 53.6325 85.5012 53.6076C85.7999 53.5391 86.035 53.483 86.2065 53.4331C86.2383 53.4207 86.2574 53.402 86.2574 53.3646V51.9873C86.2574 51.9562 86.2383 51.9375 86.2065 51.9375H85.5902C85.5012 51.9375 85.425 51.9063 85.3614 51.844C85.2979 51.7817 85.2661 51.7069 85.2661 51.6134C85.2661 51.52 85.2979 51.4452 85.3614 51.3891C85.425 51.333 85.5012 51.2956 85.5902 51.2956H86.2065C86.2383 51.2956 86.2574 51.2769 86.2574 51.2395V50.1864C86.2574 50.0866 86.2891 50.0056 86.359 49.9433C86.4289 49.881 86.5115 49.8436 86.6069 49.8436C86.7022 49.8436 86.7848 49.8748 86.8547 49.9433C86.9246 50.0119 86.9563 50.0929 86.9563 50.1864V51.2395C86.9563 51.2769 86.9754 51.2956 87.0135 51.2956H87.4583C87.5473 51.2956 87.6236 51.3268 87.6871 51.3891C87.7506 51.4514 87.7824 51.5262 87.7824 51.6134C87.7824 51.7007 87.7506 51.7817 87.6871 51.844C87.6236 51.9063 87.5473 51.9375 87.4583 51.9375H87.0135C86.9754 51.9375 86.9563 51.9562 86.9563 51.9873V53.1714C86.9563 53.1839 86.9627 53.1963 86.9754 53.2088C86.9881 53.2212 87.0008 53.2212 87.0135 53.215C87.2804 53.134 87.4456 53.0904 87.4901 53.0779ZM88.564 56.6861C88.4687 56.6861 88.3861 56.655 88.3225 56.5864C88.259 56.5179 88.2209 56.4431 88.2209 56.3558V53.8133C88.2209 53.6949 88.2653 53.5951 88.3543 53.5079C88.4432 53.4207 88.5449 53.377 88.6656 53.377H91.4043C91.5251 53.377 91.6267 53.4207 91.7157 53.5079C91.8047 53.5951 91.8491 53.6949 91.8491 53.8133V56.306C91.8491 56.3995 91.8174 56.4805 91.7475 56.549C91.6776 56.6176 91.595 56.6487 91.4997 56.6487H91.4171C91.3408 56.6487 91.2773 56.6238 91.2264 56.5677C91.1756 56.5116 91.1502 56.4493 91.1502 56.3808C91.1502 56.3621 91.1375 56.3496 91.112 56.3496H88.9452C88.9198 56.3496 88.9071 56.3621 88.9071 56.387C88.9071 56.468 88.8753 56.5428 88.8182 56.5989C88.761 56.655 88.6847 56.6861 88.6021 56.6861H88.564ZM89.4854 52.2242H91.0294C91.201 52.2242 91.3154 52.1868 91.3789 52.112C91.4425 52.0372 91.4869 51.8876 91.5124 51.6571C91.5251 51.5823 91.5632 51.52 91.6331 51.4826C91.703 51.4452 91.7792 51.4389 91.8555 51.4639C91.9508 51.5013 92.0271 51.5636 92.0779 51.6446C92.1224 51.7069 92.1478 51.7755 92.1478 51.8502C92.1478 51.8689 92.1478 51.8876 92.1478 51.9063C92.0906 52.2678 91.9826 52.5108 91.8364 52.6417C91.6903 52.7726 91.4361 52.8411 91.0739 52.8411H89.4345C88.9643 52.8411 88.6466 52.7788 88.4814 52.6479C88.3162 52.517 88.2336 52.274 88.2336 51.9063V50.1801C88.2336 50.0866 88.2653 50.0056 88.3352 49.9371C88.4051 49.8685 88.4814 49.8374 88.583 49.8374C88.6847 49.8374 88.761 49.8685 88.8309 49.9371C88.9008 50.0056 88.9325 50.0866 88.9325 50.1801V50.8345C88.9325 50.8656 88.9516 50.8843 88.9834 50.8781C89.7141 50.7161 90.3368 50.5416 90.8515 50.3422C90.9214 50.3172 90.9913 50.3048 91.0612 50.3048C91.0993 50.3048 91.1375 50.3048 91.1756 50.311C91.2836 50.3297 91.3789 50.3795 91.4615 50.4543C91.5124 50.5042 91.5378 50.554 91.5378 50.6163C91.5378 50.635 91.5378 50.6537 91.5314 50.6662C91.5187 50.7534 91.4679 50.8095 91.3853 50.8345C90.7371 51.0588 89.9429 51.2582 88.9961 51.4327C88.9643 51.4389 88.9452 51.4576 88.9452 51.5013V51.8939C88.9452 52.0185 88.977 52.1058 89.0469 52.1431C89.1168 52.1805 89.2566 52.2242 89.4854 52.2242ZM91.1438 54.0189C91.1438 53.9815 91.1248 53.9628 91.0866 53.9628H88.9579C88.9262 53.9628 88.9071 53.9815 88.9071 54.0189V54.5362C88.9071 54.5673 88.9262 54.586 88.9579 54.586H91.0866C91.1248 54.586 91.1438 54.5673 91.1438 54.5362V54.0189ZM88.9008 55.7264C88.9008 55.7638 88.9198 55.7825 88.9516 55.7825H91.0803C91.1184 55.7825 91.1375 55.7638 91.1375 55.7264V55.1843C91.1375 55.1531 91.1184 55.1344 91.0803 55.1344H88.9516C88.9198 55.1344 88.9008 55.1531 88.9008 55.1843V55.7264Z" fill="#769763"/>
<path d="M104.443 50.6163C104.507 50.6787 104.539 50.7534 104.539 50.8469C104.539 50.9404 104.507 51.0152 104.443 51.0775C104.38 51.1398 104.304 51.171 104.215 51.171H101.565C101.533 51.171 101.508 51.1897 101.508 51.2271C101.482 51.4016 101.45 51.5947 101.419 51.7942C101.412 51.8253 101.431 51.844 101.463 51.844H103.763C103.89 51.844 103.992 51.8876 104.075 51.9749C104.157 52.0621 104.202 52.1618 104.202 52.2802V55.9258C104.202 56.1128 104.176 56.2624 104.119 56.3558C104.062 56.4493 103.973 56.5241 103.833 56.5739C103.662 56.6425 103.331 56.6737 102.848 56.6737C102.753 56.6737 102.664 56.6487 102.588 56.5926C102.512 56.5366 102.454 56.4618 102.416 56.3683C102.385 56.2997 102.391 56.2374 102.429 56.1751C102.467 56.1128 102.524 56.0879 102.601 56.0941C102.728 56.0941 102.836 56.0941 102.937 56.0941C103.083 56.0941 103.204 56.0941 103.3 56.0879C103.363 56.0879 103.408 56.0754 103.433 56.0567C103.458 56.038 103.471 55.9944 103.471 55.9258V52.5544C103.471 52.517 103.452 52.4984 103.42 52.4984H98.9977C98.9659 52.4984 98.9469 52.517 98.9469 52.5544V56.3309C98.9469 56.4306 98.9151 56.5116 98.8452 56.5802C98.7753 56.6487 98.6927 56.6799 98.5974 56.6799C98.5021 56.6799 98.4195 56.6487 98.3496 56.5802C98.2797 56.5116 98.2479 56.4306 98.2479 56.3309V52.2865C98.2479 52.1681 98.2924 52.0684 98.375 51.9811C98.4576 51.8939 98.5656 51.8502 98.6863 51.8502H100.669C100.701 51.8502 100.726 51.8315 100.726 51.8004C100.732 51.7692 100.745 51.6882 100.758 51.5511C100.771 51.414 100.79 51.3081 100.796 51.2271C100.802 51.1897 100.783 51.171 100.745 51.171H98.2161C98.1272 51.171 98.0509 51.1398 97.9874 51.0775C97.9238 51.0152 97.8921 50.9404 97.8921 50.8469C97.8921 50.7534 97.9238 50.6787 97.9874 50.6163C98.0509 50.554 98.1272 50.5229 98.2161 50.5229H100.815C100.853 50.5229 100.879 50.5042 100.885 50.473C100.891 50.3858 100.898 50.2985 100.898 50.2113C100.91 50.1116 100.955 50.0243 101.031 49.9558C101.101 49.8997 101.177 49.8685 101.273 49.8685C101.285 49.8685 101.298 49.8685 101.311 49.8685C101.419 49.881 101.508 49.9246 101.571 50.0056C101.628 50.0742 101.654 50.149 101.654 50.23C101.654 50.2424 101.654 50.2611 101.654 50.2798C101.641 50.3297 101.635 50.392 101.622 50.4668C101.616 50.4979 101.635 50.5166 101.673 50.5166H104.221C104.304 50.5166 104.38 50.554 104.443 50.6163ZM103.026 54.8041C103.083 54.8602 103.109 54.9225 103.109 55.0035C103.109 55.0845 103.083 55.1469 103.026 55.203C102.969 55.259 102.906 55.284 102.829 55.284H101.578C101.546 55.284 101.527 55.3027 101.527 55.3401V56.1813C101.527 56.2748 101.495 56.3496 101.431 56.4182C101.368 56.4867 101.285 56.5116 101.19 56.5116C101.095 56.5116 101.018 56.4805 100.948 56.4182C100.879 56.3558 100.853 56.2748 100.853 56.1813V55.3401C100.853 55.3027 100.834 55.284 100.796 55.284H99.6014C99.5251 55.284 99.4616 55.259 99.4044 55.203C99.3472 55.1469 99.3218 55.0845 99.3218 55.0035C99.3218 54.9225 99.3472 54.8602 99.4044 54.8041C99.4616 54.748 99.5251 54.7231 99.6014 54.7231H100.796C100.834 54.7231 100.853 54.7044 100.853 54.667V54.1373C100.853 54.1062 100.834 54.0875 100.796 54.0875H99.7602C99.684 54.0875 99.6141 54.0625 99.5632 54.0064C99.5124 53.9504 99.487 53.888 99.487 53.8133C99.487 53.7385 99.5124 53.6762 99.5632 53.6201C99.6141 53.564 99.684 53.5391 99.7602 53.5391H100.122C100.135 53.5391 100.148 53.5328 100.161 53.5204C100.173 53.5079 100.173 53.4954 100.167 53.483C100.122 53.3272 100.053 53.1527 99.9572 52.9595C99.9254 52.8972 99.9191 52.8286 99.9508 52.7663C99.9826 52.704 100.027 52.6604 100.097 52.6355C100.129 52.6292 100.167 52.6292 100.192 52.6292C100.243 52.6292 100.294 52.6417 100.338 52.6604C100.415 52.6915 100.472 52.7414 100.51 52.8162C100.554 52.9034 100.599 52.9907 100.637 53.0779C100.656 53.1215 100.669 53.1652 100.669 53.2088C100.669 53.2586 100.656 53.3023 100.631 53.3459C100.586 53.4394 100.51 53.5017 100.408 53.5266C100.408 53.5391 100.408 53.5391 100.415 53.5391H101.558C101.59 53.5391 101.616 53.5204 101.635 53.4892C101.736 53.2649 101.819 53.053 101.889 52.8536C101.921 52.7663 101.972 52.6978 102.054 52.6541C102.111 52.623 102.168 52.6043 102.226 52.6043C102.251 52.6043 102.277 52.6043 102.302 52.6105C102.385 52.6292 102.448 52.6791 102.486 52.7476C102.505 52.7912 102.518 52.8349 102.518 52.8723C102.518 52.9034 102.512 52.9408 102.493 52.972C102.397 53.1839 102.321 53.3583 102.251 53.483C102.245 53.4954 102.245 53.5017 102.257 53.5141C102.27 53.5266 102.277 53.5328 102.289 53.5328H102.677C102.753 53.5328 102.823 53.5578 102.88 53.6138C102.937 53.6699 102.963 53.7322 102.963 53.807C102.963 53.8818 102.937 53.9441 102.88 54.0002C102.823 54.0563 102.759 54.0812 102.677 54.0812H101.565C101.533 54.0812 101.514 54.0999 101.514 54.1311V54.667C101.514 54.7044 101.533 54.7231 101.565 54.7231H102.817C102.899 54.7231 102.969 54.7543 103.026 54.8041Z" fill="#769763"/>
</g>
<defs>
<clipPath id="clip0_4943_881">
<rect width="107.673" height="62.2868" fill="white" transform="translate(0.163513 0.793091)"/>
</clipPath>
</defs>
</svg>
