<svg width="61" height="61" viewBox="0 0 61 61" fill="none" xmlns="http://www.w3.org/2000/svg">
<path d="M35.5219 19.1052C34.9823 18.8333 34.4428 18.2895 34.173 17.7457C33.9032 17.2018 33.9032 16.658 34.0331 16.3962C34.163 16.1343 34.4128 16.1645 34.9523 16.4364C35.4919 16.7084 36.3212 17.232 37.0107 17.222C37.6901 17.2119 38.2297 16.6681 38.7792 16.5271C39.3188 16.3962 39.8583 16.6681 40.3979 16.6681C40.9375 16.6681 41.477 16.3962 42.0166 16.2552C42.5561 16.1142 43.0957 16.1142 43.3655 16.2552C43.6353 16.3962 43.6353 16.6681 43.9051 17.2119C44.1748 17.7557 44.7144 18.5715 44.7144 18.9844C44.7144 19.3872 44.1748 19.3872 43.9051 19.6692C43.6353 19.9411 43.6352 20.485 43.2256 21.1698C42.8259 21.8546 42.0066 22.6704 41.7368 23.2142C41.467 23.758 41.7368 24.0299 42.1365 24.5738C42.5461 25.1176 43.0857 25.9333 43.2156 26.3463C43.3555 26.7491 43.0857 26.7491 42.5362 26.6182C41.9966 26.4772 41.1872 26.2053 40.5078 25.8024C39.8383 25.3895 39.2888 24.8457 39.1589 24.3019C39.019 23.758 39.2888 23.2142 38.8891 23.2142C38.4795 23.2142 37.4003 23.758 36.7309 23.899C36.0514 24.0299 35.7817 23.758 35.9216 22.9423C36.0614 22.1265 36.601 20.7669 36.601 20.0821C36.601 19.3772 36.0614 19.3772 35.5219 19.1052Z" stroke="#769763" stroke-miterlimit="10"/>
<path d="M28.5077 27.595C28.3778 27.4541 28.108 27.4541 27.8283 27.595C27.5585 27.736 27.2887 27.9979 26.879 28.1389C26.4694 28.2698 25.9298 28.2698 25.3903 28.1389C24.8507 27.9979 24.3111 27.736 23.6317 27.595C22.9522 27.4541 22.1429 27.4541 21.3336 27.595C20.5242 27.736 19.7149 27.9979 19.1753 27.9979C18.6358 27.9979 18.366 27.726 18.2261 27.4541C18.0962 27.1821 18.0962 26.9102 17.9563 26.7692C17.8164 26.6282 17.5466 26.6282 17.2769 26.7692C17.0071 26.9002 16.7373 27.1721 16.5974 27.4541C16.4675 27.726 16.4675 27.9979 16.5974 28.1389C16.7373 28.2698 17.0071 28.2698 17.137 28.4108C17.2769 28.5417 17.2769 28.8136 17.4068 29.0956C17.5367 29.3675 17.8064 29.6395 17.9463 30.3243C18.0762 31.0091 18.0762 32.0968 17.9463 32.9125C17.8064 33.7283 17.5367 34.2721 17.5367 34.544C17.5367 34.8159 17.8064 34.8159 18.2161 34.8159C18.6258 34.8159 19.1653 34.8159 19.565 34.9468C19.9747 35.0878 20.2445 35.3598 20.5142 35.9036C20.784 36.4474 21.0538 37.2632 21.4634 37.807C21.8731 38.3508 22.4127 38.6227 23.3519 38.6227C24.3011 38.6227 25.65 38.3508 26.3195 38.3508C26.9989 38.3508 26.9989 38.6227 26.9989 39.0356C26.9989 39.4385 26.9989 39.9924 27.4086 40.3952C27.8183 40.8081 28.6276 41.0801 28.8974 41.4829C29.1672 41.8958 28.8974 42.4396 28.8974 42.8425C28.8974 43.2554 29.1672 43.5273 29.5768 43.6582C29.9765 43.7891 30.526 43.7891 30.9257 43.9301C31.3354 44.0611 31.6052 44.333 31.875 44.333C32.1447 44.333 32.4145 44.0611 32.6843 43.5172C32.9541 42.9734 33.2239 42.1576 33.2239 41.6138C33.2239 41.07 32.9541 40.7981 32.9541 40.5262C32.9541 40.2542 33.2238 39.9823 33.4936 39.7104C33.7634 39.4385 34.0332 39.1666 33.9033 39.0356C33.7634 38.8947 33.2238 38.8947 32.6843 38.7637C32.1447 38.6227 31.6052 38.3508 31.1955 37.948C30.7858 37.5351 30.5161 36.9912 30.2463 36.8603C29.9765 36.7193 29.7067 36.9912 29.1672 36.8603C28.6276 36.7193 27.8183 36.1755 27.5485 35.7727C27.2787 35.3698 27.5485 35.0878 27.5485 34.8159C27.5485 34.544 27.2787 34.2721 27.1388 34.0002C26.9989 33.7283 26.9989 33.4563 27.2787 33.1844C27.5485 32.9125 28.088 32.6406 28.4977 32.6406C28.9074 32.6406 29.1771 32.9125 29.307 32.9125C29.4369 32.9125 29.4369 32.6406 29.4369 32.3687C29.4369 32.0968 29.4369 31.8248 29.307 31.6839C29.1672 31.5429 28.8974 31.5429 28.6276 31.2709C28.3578 30.999 28.088 30.4552 28.088 30.0423C28.088 29.6395 28.3578 29.3575 28.4877 29.0855C28.6276 28.8136 28.6276 28.5417 28.6276 28.2698C28.6476 28.008 28.6476 27.736 28.5077 27.595Z" stroke="#769763" stroke-miterlimit="10"/>
<path opacity="0.45" d="M35.5219 19.1052C34.9823 18.8333 34.4428 18.2895 34.173 17.7457C33.9032 17.2018 33.9032 16.658 34.0331 16.3962C34.163 16.1343 34.4128 16.1645 34.9523 16.4364C35.4919 16.7084 36.3212 17.232 37.0107 17.222C37.6901 17.2119 38.2297 16.6681 38.7792 16.5271C39.3188 16.3962 39.8583 16.6681 40.3979 16.6681C40.9375 16.6681 41.477 16.3962 42.0166 16.2552C42.5561 16.1142 43.0957 16.1142 43.3655 16.2552C43.6353 16.3962 43.6353 16.6681 43.9051 17.2119C44.1748 17.7557 44.7144 18.5715 44.7144 18.9844C44.7144 19.3872 44.1748 19.3872 43.9051 19.6692C43.6353 19.9411 43.6352 20.485 43.2256 21.1698C42.8259 21.8546 42.0066 22.6704 41.7368 23.2142C41.467 23.758 41.7368 24.0299 42.1365 24.5738C42.5461 25.1176 43.0857 25.9333 43.2156 26.3463C43.3555 26.7491 43.0857 26.7491 42.5362 26.6182C41.9966 26.4772 41.1872 26.2053 40.5078 25.8024C39.8383 25.3895 39.2888 24.8457 39.1589 24.3019C39.019 23.758 39.2888 23.2142 38.8891 23.2142C38.4795 23.2142 37.4003 23.758 36.7309 23.899C36.0514 24.0299 35.7817 23.758 35.9216 22.9423C36.0614 22.1265 36.601 20.7669 36.601 20.0821C36.601 19.3772 36.0614 19.3772 35.5219 19.1052Z" fill="#769763"/>
<path opacity="0.45" d="M28.5077 27.595C28.3778 27.4541 28.108 27.4541 27.8283 27.595C27.5585 27.736 27.2887 27.9979 26.879 28.1389C26.4694 28.2698 25.9298 28.2698 25.3903 28.1389C24.8507 27.9979 24.3111 27.736 23.6317 27.595C22.9522 27.4541 22.1429 27.4541 21.3336 27.595C20.5242 27.736 19.7149 27.9979 19.1753 27.9979C18.6358 27.9979 18.366 27.726 18.2261 27.4541C18.0962 27.1821 18.0962 26.9102 17.9563 26.7692C17.8164 26.6282 17.5466 26.6282 17.2769 26.7692C17.0071 26.9002 16.7373 27.1721 16.5974 27.4541C16.4675 27.726 16.4675 27.9979 16.5974 28.1389C16.7373 28.2698 17.0071 28.2698 17.137 28.4108C17.2769 28.5417 17.2769 28.8136 17.4068 29.0956C17.5367 29.3675 17.8064 29.6395 17.9463 30.3243C18.0762 31.0091 18.0762 32.0968 17.9463 32.9125C17.8064 33.7283 17.5367 34.2721 17.5367 34.544C17.5367 34.8159 17.8064 34.8159 18.2161 34.8159C18.6258 34.8159 19.1653 34.8159 19.565 34.9468C19.9747 35.0878 20.2445 35.3598 20.5142 35.9036C20.784 36.4474 21.0538 37.2632 21.4634 37.807C21.8731 38.3508 22.4127 38.6227 23.3519 38.6227C24.3011 38.6227 25.65 38.3508 26.3195 38.3508C26.9989 38.3508 26.9989 38.6227 26.9989 39.0356C26.9989 39.4385 26.9989 39.9924 27.4086 40.3952C27.8183 40.8081 28.6276 41.0801 28.8974 41.4829C29.1672 41.8958 28.8974 42.4396 28.8974 42.8425C28.8974 43.2554 29.1672 43.5273 29.5768 43.6582C29.9765 43.7891 30.526 43.7891 30.9257 43.9301C31.3354 44.0611 31.6052 44.333 31.875 44.333C32.1447 44.333 32.4145 44.0611 32.6843 43.5172C32.9541 42.9734 33.2239 42.1576 33.2239 41.6138C33.2239 41.07 32.9541 40.7981 32.9541 40.5262C32.9541 40.2542 33.2238 39.9823 33.4936 39.7104C33.7634 39.4385 34.0332 39.1666 33.9033 39.0356C33.7634 38.8947 33.2238 38.8947 32.6843 38.7637C32.1447 38.6227 31.6052 38.3508 31.1955 37.948C30.7858 37.5351 30.5161 36.9912 30.2463 36.8603C29.9765 36.7193 29.7067 36.9912 29.1672 36.8603C28.6276 36.7193 27.8183 36.1755 27.5485 35.7727C27.2787 35.3698 27.5485 35.0878 27.5485 34.8159C27.5485 34.544 27.2787 34.2721 27.1388 34.0002C26.9989 33.7283 26.9989 33.4563 27.2787 33.1844C27.5485 32.9125 28.088 32.6406 28.4977 32.6406C28.9074 32.6406 29.1771 32.9125 29.307 32.9125C29.4369 32.9125 29.4369 32.6406 29.4369 32.3687C29.4369 32.0968 29.4369 31.8248 29.307 31.6839C29.1672 31.5429 28.8974 31.5429 28.6276 31.2709C28.3578 30.999 28.088 30.4552 28.088 30.0423C28.088 29.6395 28.3578 29.3575 28.4877 29.0855C28.6276 28.8136 28.6276 28.5417 28.6276 28.2698C28.6476 28.008 28.6476 27.736 28.5077 27.595Z" fill="#769763"/>
</svg>
