<svg width="61" height="61" viewBox="0 0 61 61" fill="none" xmlns="http://www.w3.org/2000/svg">
<path d="M19.12 37.7532V46.7732" stroke="#769763" stroke-miterlimit="10" stroke-linecap="round" stroke-linejoin="round"/>
<path d="M16.5 46.7732H21.75" stroke="#769763" stroke-miterlimit="10" stroke-linecap="round" stroke-linejoin="round"/>
<path d="M30.62 37.7532V46.7732" stroke="#769763" stroke-miterlimit="10" stroke-linecap="round" stroke-linejoin="round"/>
<path d="M28 46.7732H33.24" stroke="#769763" stroke-miterlimit="10" stroke-linecap="round" stroke-linejoin="round"/>
<path d="M41.8 37.7532V46.7732" stroke="#769763" stroke-miterlimit="10" stroke-linecap="round" stroke-linejoin="round"/>
<path d="M39.1801 46.7732H44.4201" stroke="#769763" stroke-miterlimit="10" stroke-linecap="round" stroke-linejoin="round"/>
<path d="M29.86 37.6432C28.93 39.5232 27 40.8132 24.77 40.8132C22.53 40.8132 20.59 39.5132 19.67 37.6232" stroke="#769763" stroke-miterlimit="10" stroke-linecap="round" stroke-linejoin="round"/>
<path d="M41.28 37.8632C40.32 39.6232 38.45 40.8132 36.3 40.8132C34.11 40.8132 32.21 39.5732 31.27 37.7632" stroke="#769763" stroke-miterlimit="10" stroke-linecap="round" stroke-linejoin="round"/>
<path d="M19.12 37.7532C20.567 37.7532 21.74 36.5802 21.74 35.1332C21.74 33.6862 20.567 32.5132 19.12 32.5132C17.673 32.5132 16.5 33.6862 16.5 35.1332C16.5 36.5802 17.673 37.7532 19.12 37.7532Z" stroke="#769763" stroke-miterlimit="10" stroke-linecap="round" stroke-linejoin="round"/>
<path d="M30.62 37.7532C32.067 37.7532 33.24 36.5802 33.24 35.1332C33.24 33.6862 32.067 32.5132 30.62 32.5132C29.173 32.5132 28 33.6862 28 35.1332C28 36.5802 29.173 37.7532 30.62 37.7532Z" stroke="#769763" stroke-miterlimit="10" stroke-linecap="round" stroke-linejoin="round"/>
<path d="M41.8001 37.7532C43.247 37.7532 44.4201 36.5802 44.4201 35.1332C44.4201 33.6862 43.247 32.5132 41.8001 32.5132C40.3531 32.5132 39.1801 33.6862 39.1801 35.1332C39.1801 36.5802 40.3531 37.7532 41.8001 37.7532Z" stroke="#769763" stroke-miterlimit="10" stroke-linecap="round" stroke-linejoin="round"/>
<path d="M40.48 17.4032H20.39V28.6732H40.48V17.4032Z" stroke="#769763" stroke-miterlimit="10" stroke-linecap="round" stroke-linejoin="round"/>
<path d="M30.44 13.5632L27.51 17.4032H33.37L30.44 13.5632Z" stroke="#769763" stroke-miterlimit="10" stroke-linecap="round" stroke-linejoin="round"/>
</svg>
