<svg width="60" height="60" viewBox="0 0 60 60" fill="none" xmlns="http://www.w3.org/2000/svg">
<path d="M19.068 47.244H12V17.928H34.8V32.58" stroke="#769763" stroke-miterlimit="10" stroke-linecap="round" stroke-linejoin="round"/>
<path d="M35.6401 33.6119L42.2641 30.4919L47.3521 41.4359H19.0681L30.4681 36.0599" stroke="#769763" stroke-miterlimit="10" stroke-linecap="round" stroke-linejoin="round"/>
<path d="M47.3521 41.436H19.0681V50.196H47.3521V41.436Z" stroke="#769763" stroke-miterlimit="10" stroke-linecap="round" stroke-linejoin="round"/>
<path d="M33.2161 37.7279C34.7537 37.7279 36.0001 36.4815 36.0001 34.9439C36.0001 33.4064 34.7537 32.1599 33.2161 32.1599C31.6786 32.1599 30.4321 33.4064 30.4321 34.9439C30.4321 36.4815 31.6786 37.7279 33.2161 37.7279Z" stroke="#769763" stroke-miterlimit="10" stroke-linecap="round" stroke-linejoin="round"/>
<path d="M23.3999 10.8C21.4319 10.8 19.8359 12.396 19.8359 14.364V17.76C19.8359 17.856 19.9079 17.928 20.0039 17.928H26.7839C26.8799 17.928 26.9519 17.856 26.9519 17.76V14.364C26.9639 12.396 25.3679 10.8 23.3999 10.8Z" stroke="#769763" stroke-miterlimit="10" stroke-linecap="round" stroke-linejoin="round"/>
<path d="M12 22.4761H34.248" stroke="#769763" stroke-miterlimit="10" stroke-linecap="round" stroke-linejoin="round"/>
</svg>
