<svg width="61" height="61" viewBox="0 0 61 61" fill="none" xmlns="http://www.w3.org/2000/svg">
<path d="M30.16 40.7302C40.4656 40.7302 48.82 37.3902 48.82 33.2702C48.82 29.1501 40.4656 25.8102 30.16 25.8102C19.8544 25.8102 11.5 29.1501 11.5 33.2702C11.5 37.3902 19.8544 40.7302 30.16 40.7302Z" stroke="#769763" stroke-miterlimit="10"/>
<path d="M30.16 43.5702C40.4656 43.5702 48.82 40.2302 48.82 36.1102C48.82 31.9901 40.4656 28.6502 30.16 28.6502C19.8544 28.6502 11.5 31.9901 11.5 36.1102C11.5 40.2302 19.8544 43.5702 30.16 43.5702Z" stroke="#769763" stroke-miterlimit="10"/>
<path d="M37.9699 18.7702C37.9699 21.2202 35.7 21.2202 35.7 23.6802C35.7 26.1302 37.9699 26.1302 37.9699 28.5902C37.9699 31.0502 35.7 31.0402 35.7 33.5002" stroke="#769763" stroke-miterlimit="10"/>
<path d="M31.29 18.7702C31.29 21.2202 29.02 21.2202 29.02 23.6802C29.02 26.1302 31.29 26.1302 31.29 28.5902C31.29 31.0502 29.02 31.0402 29.02 33.5002" stroke="#769763" stroke-miterlimit="10"/>
<path d="M24.62 18.7702C24.62 21.2202 22.35 21.2202 22.35 23.6802C22.35 26.1302 24.62 26.1302 24.62 28.5902C24.62 31.0502 22.35 31.0402 22.35 33.5002" stroke="#769763" stroke-miterlimit="10"/>
</svg>
