<svg width="325" height="195" viewBox="0 0 325 195" fill="none" xmlns="http://www.w3.org/2000/svg">
<path d="M269.435 62.1265C268.493 62.1265 267.582 61.7011 266.982 60.9585L264.904 58.3827C264.203 57.5164 264.024 56.3329 264.429 55.3042L265.636 52.2256C266.04 51.1891 266.975 50.4465 268.08 50.2763L271.373 49.7736C272.471 49.6034 273.6 50.0365 274.292 50.9029L276.371 53.4787C277.072 54.345 277.251 55.5285 276.846 56.5572L275.639 59.6358C275.234 60.6723 274.3 61.4149 273.195 61.5851L269.902 62.0878C269.746 62.111 269.59 62.1265 269.435 62.1265ZM271.848 52.1018C271.809 52.1018 271.77 52.1018 271.731 52.1096L268.438 52.6123C268.174 52.651 267.948 52.8289 267.854 53.0764L266.648 56.155C266.554 56.4025 266.593 56.6887 266.764 56.8976L268.843 59.4811C269.014 59.69 269.287 59.7905 269.544 59.7518L272.837 59.2491C273.101 59.2104 273.327 59.0325 273.421 58.7849L274.627 55.7064C274.721 55.4589 274.682 55.1727 274.51 54.9638L272.432 52.388C272.292 52.2024 272.074 52.1018 271.848 52.1018Z" fill="#E0E0E0"/>
<path d="M50.4645 79.6696C49.5225 79.6696 48.6039 79.2442 48.0044 78.5016L45.9181 75.9181C45.2174 75.0518 45.0306 73.8683 45.4432 72.8318L46.6576 69.7455C47.0624 68.709 48.0044 67.9587 49.1099 67.7885L52.4107 67.2857C53.5161 67.1156 54.6372 67.5487 55.3456 68.4228L57.432 71.0063C58.1326 71.8726 58.3194 73.0561 57.9068 74.0926L56.6924 77.1789C56.2876 78.2154 55.3456 78.9657 54.2401 79.1359L50.9393 79.6387C50.7836 79.6619 50.6279 79.6696 50.4645 79.6696ZM52.8856 69.614C52.8466 69.614 52.8077 69.614 52.7688 69.6217L49.468 70.1245C49.2033 70.1632 48.9775 70.3411 48.8763 70.5964L47.6619 73.6827C47.5607 73.9302 47.6074 74.2164 47.7787 74.4252L49.865 77.0087C50.0363 77.2176 50.3088 77.3181 50.5657 77.2795L53.8665 76.7767C54.1312 76.738 54.3569 76.5601 54.4581 76.3049L55.6726 73.2186C55.7738 72.971 55.7271 72.6848 55.5558 72.476L53.4694 69.8925C53.3293 69.7223 53.1113 69.614 52.8856 69.614Z" fill="#F1D675"/>
<path d="M289.204 107.052C288.223 107.052 287.281 106.611 286.659 105.837L282.712 100.941C281.988 100.044 281.801 98.814 282.221 97.7465L284.51 91.8988C284.93 90.8236 285.904 90.0501 287.048 89.8722L293.291 88.9208C294.436 88.7429 295.596 89.1993 296.328 90.0965L300.274 94.9928C300.998 95.8901 301.185 97.1123 300.765 98.1875L298.476 104.035C298.056 105.11 297.083 105.884 295.938 106.062L289.695 107.013C289.531 107.044 289.368 107.052 289.204 107.052ZM285.382 98.9068L289.251 103.703L295.362 102.774L297.604 97.0504L293.735 92.2546L287.624 93.1828L285.382 98.9068Z" fill="#A1B893"/>
<path d="M38.1254 119.575H32.1076C30.6518 119.575 29.2895 118.794 28.5577 117.541L25.5449 112.358C24.8131 111.105 24.8131 109.543 25.5449 108.29L28.5577 103.107C29.2895 101.854 30.644 101.073 32.1076 101.073H38.1254C39.5811 101.073 40.9435 101.854 41.6753 103.107L44.688 108.29C45.4198 109.543 45.4198 111.105 44.688 112.358L41.6753 117.541C40.9435 118.794 39.5811 119.575 38.1254 119.575ZM32.1076 104.167C31.7573 104.167 31.4303 104.352 31.2591 104.654L28.2463 109.837C28.0672 110.138 28.0672 110.51 28.2463 110.811L31.2591 115.994C31.4381 116.295 31.7573 116.481 32.1076 116.481H38.1254C38.4757 116.481 38.8026 116.295 38.9817 115.994L41.9945 110.811C42.1735 110.51 42.1735 110.138 41.9945 109.837L38.9817 104.654C38.8026 104.352 38.4835 104.167 38.1254 104.167H32.1076Z" fill="#EBEBEB"/>
<path d="M253.219 34.0711H76.2441V26.5294C76.2441 25.1293 77.3885 24 78.7898 24H250.665C252.074 24 253.211 25.1371 253.211 26.5294V34.0711H253.219Z" fill="#A1B893"/>
<path d="M246.142 159.001H82.8844C79.0932 159.001 76.0259 155.945 76.0337 152.178L76.2517 34.071H253V152.186C252.993 155.953 249.925 159.001 246.142 159.001Z" fill="white"/>
<path d="M96.3758 29.2059C96.3758 30.2115 95.5973 31.0237 94.632 31.0237C93.6667 31.0237 92.8882 30.2115 92.8882 29.2059C92.8882 28.2004 93.6667 27.3882 94.632 27.3882C95.5973 27.3882 96.3758 28.2004 96.3758 29.2059Z" fill="#FAFAFA"/>
<path d="M85.8036 29.2059C85.8036 30.2115 85.0251 31.0237 84.0597 31.0237C83.0944 31.0237 82.3159 30.2115 82.3159 29.2059C82.3159 28.2004 83.0944 27.3882 84.0597 27.3882C85.0251 27.3882 85.8036 28.2004 85.8036 29.2059Z" fill="#FAFAFA"/>
<path d="M91.2376 29.2059C91.2376 30.2115 90.4592 31.0237 89.4938 31.0237C88.5285 31.0237 87.75 30.2115 87.75 29.2059C87.75 28.2004 88.5285 27.3882 89.4938 27.3882C90.4592 27.3882 91.2376 28.2004 91.2376 29.2059Z" fill="#FAFAFA"/>
<g opacity="0.25">
<g opacity="0.25">
<g opacity="0.25">
<g opacity="0.25">
<g opacity="0.25">
<path opacity="0.25" d="M141.372 58.0422C144.852 55.9537 148.566 54.368 152.388 53.2851L154.661 42.4482L173.088 42.1311L175.743 52.8829C179.604 53.8266 183.364 55.2808 186.922 57.2532L196.233 51.1889L209.491 63.9054L203.722 73.3655C205.832 76.8308 207.428 80.5127 208.51 84.3184L219.416 86.5693L219.743 104.878L208.922 107.516C207.972 111.353 206.509 115.089 204.524 118.624L210.627 127.875L197.829 141.048L188.308 135.316C184.82 137.404 181.114 138.99 177.292 140.073L175.019 150.91L156.592 151.235L153.937 140.483C150.076 139.539 146.316 138.085 142.758 136.113L133.447 142.177L120.19 129.46L125.958 120C123.856 116.535 122.253 112.853 121.171 109.055L110.264 106.797L109.937 88.4876L120.758 85.8499C121.708 82.0133 123.179 78.2772 125.157 74.7423L119.053 65.4911L131.852 52.3182L141.372 58.0422ZM151.197 82.4233C143.615 90.228 143.833 102.666 151.688 110.2C159.542 117.734 172.053 117.517 179.643 109.713C187.226 101.908 187.008 89.4699 179.153 81.936C171.298 74.402 158.78 74.6263 151.197 82.4233Z" fill="#E0E0E0"/>
</g>
</g>
</g>
</g>
</g>
<path d="M196.474 68.3608C196.731 66.9916 197.167 65.6767 197.759 64.4468L195.462 61.3914L199.588 56.5957L202.983 58.3747C204.111 57.6012 205.349 56.9669 206.673 56.5106L207.225 52.7358L213.554 52.2485L214.691 55.8918C216.069 56.147 217.392 56.5802 218.63 57.1681L221.705 54.8862L226.532 58.9858L224.741 62.3583C225.52 63.4799 226.158 64.7098 226.617 66.0248L230.417 66.5739L230.915 72.8626L227.248 73.9919C226.991 75.361 226.555 76.676 225.964 77.9059L228.26 80.9612L224.134 85.757L220.74 83.9779C219.611 84.7514 218.373 85.3857 217.05 85.8421L216.497 89.6168L210.168 90.1119L209.031 86.4686C207.653 86.2134 206.33 85.7802 205.092 85.1923L202.017 87.4742L197.191 83.3746L198.981 80.0021C198.203 78.8805 197.564 77.6506 197.105 76.3356L193.306 75.7864L192.808 69.4978L196.474 68.3608ZM205.053 70.2713C204.672 74.7809 208.627 78.3158 213.025 77.5655C216.022 77.0473 218.373 74.5334 218.63 71.5244C219.012 67.0148 215.057 63.4722 210.658 64.2302C207.661 64.7407 205.31 67.2546 205.053 70.2713Z" fill="#E0E0E0"/>
<path d="M88.6998 116.342C88.7387 115.019 88.9567 113.72 89.3381 112.482L86.738 109.937L89.922 104.84L93.3707 106.023C94.3205 105.134 95.3948 104.36 96.5703 103.741L96.547 100.114L102.432 98.7444L104.028 102.009C105.36 102.047 106.667 102.264 107.913 102.643L110.474 100.059L115.604 103.223L114.413 106.65C115.309 107.593 116.087 108.661 116.71 109.829L120.361 109.806L121.739 115.653L118.454 117.239C118.415 118.562 118.197 119.861 117.815 121.099L120.416 123.644L117.232 128.741L113.783 127.558C112.833 128.447 111.759 129.221 110.583 129.839L110.607 133.467L104.721 134.836L103.125 131.572C101.794 131.533 100.486 131.317 99.2406 130.938L96.6793 133.521L91.5491 130.358L92.7402 126.931C91.8449 125.987 91.0664 124.92 90.4436 123.752L86.7925 123.775L85.4146 117.927L88.6998 116.342ZM97.2087 117.989C98.0261 121.455 101.514 123.605 105.001 122.793C108.489 121.981 110.653 118.515 109.836 115.05C109.018 111.585 105.531 109.434 102.043 110.246C98.5555 111.059 96.3913 114.524 97.2087 117.989Z" fill="#E0E0E0"/>
<path d="M108.847 68.0822C109.042 67.0457 109.369 66.0556 109.812 65.1351L108.084 62.8301L111.198 59.21L113.759 60.5482C114.608 59.9681 115.542 59.4885 116.539 59.1404L116.959 56.2939L121.731 55.9226L122.588 58.6686C123.631 58.8619 124.627 59.1868 125.554 59.6277L127.873 57.9105L131.517 61.0046L130.17 63.5494C130.754 64.3925 131.237 65.3208 131.587 66.3109L134.452 66.7285L134.825 71.4702L132.062 72.321C131.867 73.3575 131.54 74.3476 131.096 75.2681L132.825 77.5732L129.711 81.1855L127.149 79.8473C126.301 80.4274 125.367 80.907 124.37 81.2551L123.95 84.1016L119.178 84.4729L118.321 81.7269C117.278 81.5335 116.282 81.2087 115.355 80.7678L113.035 82.485L109.4 79.3909L110.747 76.8461C110.163 76.0029 109.68 75.0747 109.33 74.0846L106.465 73.6669L106.083 68.9331L108.847 68.0822ZM115.316 70.3873C115.534 73.1951 118.01 75.299 120.836 75.0747C123.662 74.8581 125.779 72.3984 125.554 69.5905C125.336 66.7827 122.86 64.6787 120.034 64.9031C117.208 65.1196 115.091 67.5717 115.316 70.3873Z" fill="#EBEBEB"/>
<path d="M214.216 110.765C214.379 109.875 214.659 109.024 215.049 108.235L213.562 106.255L216.232 103.146L218.435 104.298C219.167 103.795 219.969 103.385 220.825 103.092L221.183 100.647L225.286 100.33L226.025 102.689C226.921 102.852 227.777 103.13 228.579 103.517L230.572 102.04L233.701 104.693L232.541 106.882C233.047 107.609 233.46 108.406 233.756 109.256L236.216 109.612L236.535 113.689L234.161 114.423C233.997 115.313 233.717 116.164 233.328 116.961L234.815 118.941L232.144 122.05L229.941 120.898C229.209 121.401 228.408 121.81 227.551 122.104L227.193 124.549L223.09 124.866L222.351 122.507C221.456 122.344 220.599 122.066 219.797 121.679L217.805 123.156L214.675 120.503L215.835 118.314C215.329 117.587 214.916 116.79 214.621 115.94L212.16 115.584L211.841 111.507L214.216 110.765ZM219.774 112.745C219.961 115.158 222.086 116.961 224.515 116.775C226.944 116.589 228.758 114.478 228.571 112.064C228.384 109.651 226.259 107.849 223.83 108.034C221.401 108.22 219.58 110.332 219.774 112.745Z" fill="#EBEBEB"/>
<path d="M164.836 124.966H136.491C129.174 124.966 124.596 117.092 128.255 110.796L142.424 86.407L156.592 62.0182C160.251 55.7218 169.398 55.7218 173.057 62.0182L187.226 86.407L201.394 110.796C205.053 117.092 200.476 124.966 193.158 124.966H164.836Z" fill="#F1D675"/>
<path d="M179.051 72.3135L134.919 99.3399L129.181 109.21L182.173 77.6816L179.051 72.3135Z" fill="#FFEBA3"/>
<path d="M186.004 84.2952L127.5 118.585C127.671 119.366 128.193 120.364 128.769 121.029L187.039 86.0742L186.004 84.2952Z" fill="#FFEBA3"/>
<path d="M72.3283 170.364C70.748 170.364 69.2221 169.652 68.2179 168.407L61.8265 160.494C60.651 159.04 60.3473 157.059 61.0324 155.319L64.738 145.867C65.4153 144.134 66.9957 142.873 68.8485 142.595L78.9455 141.055C80.7983 140.777 82.6823 141.504 83.85 142.958L90.2336 150.871C91.4092 152.325 91.7128 154.306 91.0355 156.046L87.3299 165.498C86.6526 167.239 85.0722 168.492 83.2194 168.77L73.1224 170.31C72.8577 170.341 72.593 170.364 72.3283 170.364ZM66.1471 157.183L72.4062 164.934L82.293 163.425L85.9208 154.166L79.6617 146.416L69.7749 147.924L66.1471 157.183Z" fill="#A1B893"/>
<path d="M251.646 146.416C250.416 146.416 249.225 145.859 248.446 144.892L245.729 141.52C244.819 140.39 244.577 138.843 245.107 137.497L246.687 133.475C247.216 132.121 248.438 131.147 249.886 130.93L254.184 130.273C255.624 130.048 257.088 130.621 257.998 131.75L260.715 135.123C261.626 136.252 261.867 137.799 261.338 139.145L259.758 143.167C259.228 144.521 258.006 145.495 256.558 145.712L252.261 146.369C252.058 146.4 251.848 146.416 251.646 146.416ZM254.799 133.32C254.752 133.32 254.698 133.32 254.651 133.328L250.354 133.986C250.011 134.04 249.715 134.272 249.591 134.597L248.01 138.619C247.886 138.944 247.94 139.315 248.158 139.586L250.875 142.958C251.093 143.229 251.451 143.368 251.794 143.314L256.091 142.657C256.434 142.602 256.729 142.37 256.854 142.045L258.434 138.023C258.559 137.698 258.504 137.327 258.286 137.056L255.569 133.684C255.375 133.46 255.095 133.32 254.799 133.32Z" fill="#F1D675"/>
<path d="M200.904 166.334C200.608 166.334 200.312 166.287 200.032 166.187L195.517 164.632C194.614 164.323 193.944 163.549 193.765 162.621L192.862 157.957C192.683 157.028 193.018 156.062 193.742 155.443L197.354 152.333C198.078 151.714 199.082 151.521 199.985 151.83L204.5 153.385C205.403 153.695 206.073 154.468 206.252 155.396L207.155 160.061C207.334 160.989 206.999 161.956 206.275 162.574L202.663 165.684C202.173 166.109 201.542 166.334 200.904 166.334ZM196.63 161.909L200.849 163.363L204.228 160.455L203.387 156.092L199.168 154.638L195.789 157.547L196.63 161.909Z" fill="#EBEBEB"/>
<path d="M161.754 110.44C161.754 108.846 163.031 107.663 164.852 107.663C166.674 107.663 167.92 108.846 167.92 110.44C167.92 112.002 166.674 113.271 164.852 113.271C163.031 113.271 161.754 112.002 161.754 110.44ZM161.785 78.8728H167.92L166.884 104.159H162.782L161.785 78.8728Z" fill="white"/>
</svg>
