<svg width="30" height="30" viewBox="0 0 30 30" fill="none" xmlns="http://www.w3.org/2000/svg">
<path d="M5 23.7874L6.44332 19.4574C5.1959 17.6125 4.74464 15.4277 5.17344 13.3092C5.60225 11.1907 6.88194 9.28272 8.77458 7.93999C10.6672 6.59726 13.044 5.91115 15.4631 6.00923C17.8821 6.10731 20.1788 6.98291 21.926 8.47323C23.6733 9.96354 24.7523 11.9672 24.9623 14.1115C25.1724 16.2559 24.4992 18.3951 23.068 20.1315C21.6368 21.8678 19.545 23.083 17.1814 23.5513C14.8178 24.0195 12.3434 23.7089 10.2182 22.6771L5 23.7874Z" stroke="#769763" stroke-width="2" stroke-linecap="round" stroke-linejoin="round"/>
<path d="M14.9922 14.9055V14.9166" stroke="#769763" stroke-width="2.5" stroke-linecap="round" stroke-linejoin="round"/>
<path d="M10.5513 14.9055V14.9166" stroke="#769763" stroke-width="2.5" stroke-linecap="round" stroke-linejoin="round"/>
<path d="M19.4331 14.9055V14.9166" stroke="#769763" stroke-width="2.5" stroke-linecap="round" stroke-linejoin="round"/>
</svg>
