<svg width="44" height="44" viewBox="0 0 44 44" fill="none" xmlns="http://www.w3.org/2000/svg">
<path d="M25.375 22C25.375 20.125 23.875 18.625 22 18.625C20.125 18.625 18.625 20.125 18.625 22C18.625 23.875 20.125 25.375 22 25.375C23.875 25.375 25.375 23.875 25.375 22ZM27.125 22C27.125 24.875 24.875 27.125 22 27.125C19.125 27.125 16.875 24.875 16.875 22C16.875 19.125 19.125 16.875 22 16.875C24.875 16.875 27.125 19.125 27.125 22ZM28.5 16.625C28.5 17.375 28 17.875 27.25 17.875C26.5 17.875 26 17.375 26 16.625C26 15.875 26.5 15.375 27.25 15.375C28 15.375 28.5 16 28.5 16.625ZM22 13.75C20.5 13.75 17.375 13.625 16.125 14.125C15.25 14.5 14.5 15.25 14.25 16.125C13.75 17.375 13.875 20.5 13.875 22C13.875 23.5 13.75 26.625 14.25 27.875C14.5 28.75 15.25 29.5 16.125 29.75C17.375 30.25 20.625 30.125 22 30.125C23.375 30.125 26.625 30.25 27.875 29.75C28.75 29.375 29.375 28.75 29.75 27.875C30.25 26.5 30.125 23.375 30.125 22C30.125 20.625 30.25 17.375 29.75 16.125C29.5 15.25 28.75 14.5 27.875 14.25C26.625 13.625 23.5 13.75 22 13.75ZM32 22V26.125C32 27.625 31.5 29.125 30.375 30.375C29.25 31.5 27.75 32 26.125 32H17.875C16.375 32 14.875 31.5 13.625 30.375C12.625 29.25 12 27.75 12 26.125V22V17.875C12 16.25 12.625 14.75 13.625 13.625C14.875 12.625 16.375 12 17.875 12H26.125C27.625 12 29.125 12.5 30.375 13.625C31.375 14.75 32 16.25 32 17.875V22Z" fill="#769763"/>
</svg>
