<svg width="30" height="30" viewBox="0 0 30 30" fill="none" xmlns="http://www.w3.org/2000/svg">
<path d="M15.5 5C21.2894 5 26 9.01126 26 13.9427C26 15.9166 25.2716 17.6936 23.7491 19.4444C21.5467 22.1057 16.6209 25.3469 15.5 25.8428C14.4106 26.325 14.5366 25.5715 14.5865 25.2739L14.5904 25.2491L14.7401 24.3056C14.7755 24.0245 14.8123 23.5879 14.7059 23.3096C14.5878 23.0024 14.1232 22.8427 13.7819 22.7655C8.73537 22.0671 5 18.3631 5 13.9427C5 9.01126 9.71188 5 15.5 5ZM11.5914 15.5874H9.58981V11.7745C9.58981 11.7178 9.56842 11.6633 9.53031 11.623C9.49219 11.5828 9.44045 11.56 9.38637 11.5596H8.64875C8.62186 11.5596 8.59524 11.5652 8.5704 11.576C8.54555 11.5868 8.52298 11.6026 8.50397 11.6226C8.48496 11.6425 8.46988 11.6662 8.45959 11.6923C8.4493 11.7183 8.444 11.7463 8.444 11.7745V16.5764C8.444 16.6329 8.46631 16.6866 8.50175 16.7238V16.7252L8.50438 16.728L8.507 16.7307C8.54506 16.7691 8.59594 16.7904 8.64875 16.79H11.5914C11.7042 16.79 11.7948 16.6935 11.7948 16.5751V15.8037C11.795 15.7755 11.7899 15.7475 11.7797 15.7213C11.7696 15.6952 11.7547 15.6714 11.7358 15.6513C11.7169 15.6312 11.6944 15.6153 11.6696 15.6043C11.6449 15.5933 11.6183 15.5876 11.5914 15.5874ZM12.6296 11.5596C12.5753 11.5596 12.5232 11.5823 12.4848 11.6226C12.4464 11.6629 12.4248 11.7175 12.4248 11.7745V16.5764C12.4248 16.6949 12.5167 16.79 12.6296 16.79H13.3672C13.4801 16.79 13.5706 16.6935 13.5706 16.5764V11.7745C13.5706 11.7178 13.5492 11.6633 13.5111 11.623C13.473 11.5828 13.4213 11.56 13.3672 11.5596H12.6296ZM17.6997 11.5596C17.6454 11.5596 17.5934 11.5823 17.555 11.6226C17.5166 11.6629 17.495 11.7175 17.495 11.7745V14.6259L15.3989 11.656C15.3936 11.6488 15.3879 11.6419 15.3819 11.6354V11.634C15.3777 11.6292 15.3733 11.6246 15.3688 11.6202L15.3648 11.6161C15.3603 11.6116 15.3555 11.6074 15.3504 11.6037H15.3491L15.3425 11.5982L15.3386 11.5954C15.3365 11.5938 15.3343 11.5924 15.332 11.5913L15.3215 11.5844H15.3189L15.3149 11.5817L15.3018 11.5761L15.2966 11.5734C15.2923 11.5718 15.2879 11.5704 15.2834 11.5693H15.2808L15.2769 11.5679L15.2651 11.5651H15.2572L15.2533 11.5638H15.248L15.2454 11.5624H14.492C14.4379 11.5624 14.386 11.5848 14.3477 11.6248C14.3093 11.6648 14.2876 11.7191 14.2873 11.7759V16.5778C14.2873 16.6963 14.3791 16.7913 14.492 16.7913H15.227C15.3412 16.7913 15.4331 16.6949 15.4331 16.5778V13.7264L17.5331 16.7018C17.547 16.7223 17.5644 16.74 17.5843 16.7541L17.5856 16.7555L17.5987 16.7638L17.6039 16.7665C17.6073 16.7686 17.6108 16.7705 17.6144 16.772L17.6236 16.7762L17.6302 16.7789C17.6345 16.7805 17.6389 16.7818 17.6433 16.7831H17.6473C17.6643 16.7882 17.682 16.791 17.6997 16.7913H18.4348C18.5489 16.7913 18.6408 16.6949 18.6408 16.5778V11.7745C18.6408 11.7175 18.6192 11.6629 18.5808 11.6226C18.5424 11.5823 18.4904 11.5596 18.4361 11.5596H17.6997ZM22.7069 12.5473V11.7759C22.7071 11.7477 22.702 11.7197 22.6919 11.6935C22.6817 11.6674 22.6668 11.6436 22.6479 11.6235C22.629 11.6034 22.6065 11.5875 22.5818 11.5765C22.557 11.5655 22.5304 11.5598 22.5035 11.5596H19.5609C19.5079 11.5597 19.4571 11.5814 19.4191 11.6202H19.4178L19.4165 11.623L19.4139 11.6271C19.3772 11.6666 19.3565 11.7194 19.3561 11.7745V16.5764C19.3561 16.6329 19.3784 16.6866 19.4139 16.7238L19.4165 16.728L19.4191 16.7307C19.4573 16.769 19.5081 16.7903 19.5609 16.79H22.5035C22.6164 16.79 22.7069 16.6935 22.7069 16.5751V15.8037C22.7071 15.7755 22.702 15.7475 22.6919 15.7213C22.6817 15.6952 22.6668 15.6714 22.6479 15.6513C22.629 15.6312 22.6065 15.6153 22.5818 15.6043C22.557 15.5933 22.5304 15.5876 22.5035 15.5874H20.5006V14.7761H22.5022C22.6151 14.7761 22.7056 14.6796 22.7056 14.5612V13.7898C22.7058 13.7616 22.7007 13.7336 22.6905 13.7074C22.6804 13.6813 22.6655 13.6575 22.6466 13.6374C22.6277 13.6173 22.6052 13.6014 22.5804 13.5904C22.5557 13.5794 22.5291 13.5737 22.5022 13.5735H20.5006V12.7622H22.5022C22.6151 12.7622 22.7056 12.6657 22.7056 12.5473H22.7069Z" fill="#769763"/>
</svg>
