<svg width="30" height="30" viewBox="0 0 30 30" fill="none" xmlns="http://www.w3.org/2000/svg">
<path d="M16.7155 13.2845C15.8054 12.3748 14.5713 11.8638 13.2845 11.8638C11.9977 11.8638 10.7636 12.3748 9.8535 13.2845L6.4214 16.7155C5.51129 17.6256 5 18.86 5 20.1471C5 21.4341 5.51129 22.6685 6.4214 23.5786C7.3315 24.4887 8.56587 25 9.85295 25C11.14 25 12.3744 24.4887 13.2845 23.5786L15 21.8631" stroke="#769763" stroke-width="2" stroke-linecap="round" stroke-linejoin="round"/>
<path d="M13.2844 16.7155C14.1945 17.6252 15.4286 18.1362 16.7154 18.1362C18.0022 18.1362 19.2363 17.6252 20.1464 16.7155L23.5785 13.2845C24.4886 12.3744 24.9999 11.14 24.9999 9.85295C24.9999 8.56587 24.4886 7.3315 23.5785 6.4214C22.6684 5.51129 21.4341 5 20.147 5C18.8599 5 17.6255 5.51129 16.7154 6.4214L14.9999 8.13689" stroke="#769763" stroke-width="2" stroke-linecap="round" stroke-linejoin="round"/>
</svg>
