<svg width="30" height="30" viewBox="0 0 30 30" fill="none" xmlns="http://www.w3.org/2000/svg">
<path d="M15 6V24C11.5 24 8.8995 19.42 8.8995 19.42H6C5.73478 19.42 5.48043 19.3146 5.29289 19.1271C5.10536 18.9396 5 18.6852 5 18.42V11.505C5 11.2398 5.10536 10.9854 5.29289 10.7979C5.48043 10.6104 5.73478 10.505 6 10.505H8.8995C8.8995 10.505 11.5 6 15 6Z" stroke="#769763" stroke-width="2" stroke-linejoin="round"/>
<path d="M19 10.5C19.3126 10.7793 19.5948 11.0909 19.842 11.4295C20.5977 12.4663 21.0033 13.717 21 15C21 16.327 20.577 17.5535 19.861 18.545C19.6092 18.8934 19.3206 19.2136 19 19.5" stroke="#769763" stroke-width="2" stroke-linecap="round" stroke-linejoin="round"/>
<path d="M20.1179 23.593C23.0419 21.848 24.9999 18.6525 24.9999 15C24.9999 11.404 23.1019 8.25199 20.2534 6.48999" stroke="#769763" stroke-width="2" stroke-linecap="round"/>
</svg>
