<svg width="30" height="30" viewBox="0 0 30 30" fill="none" xmlns="http://www.w3.org/2000/svg">
<path d="M7 6H23C23.2652 6 23.5196 6.10536 23.7071 6.29289C23.8946 6.48043 24 6.73478 24 7V23C24 23.2652 23.8946 23.5196 23.7071 23.7071C23.5196 23.8946 23.2652 24 23 24H7C6.73478 24 6.48043 23.8946 6.29289 23.7071C6.10536 23.5196 6 23.2652 6 23V7C6 6.73478 6.10536 6.48043 6.29289 6.29289C6.48043 6.10536 6.73478 6 7 6ZM8 8V22H22V8H8ZM12 10H15.5C16.4283 10 17.3185 10.3687 17.9749 11.0251C18.6313 11.6815 19 12.5717 19 13.5C19 14.4283 18.6313 15.3185 17.9749 15.9749C17.3185 16.6313 16.4283 17 15.5 17H14V20H12V10ZM14 12V15H15.5C15.8978 15 16.2794 14.842 16.5607 14.5607C16.842 14.2794 17 13.8978 17 13.5C17 13.1022 16.842 12.7206 16.5607 12.4393C16.2794 12.158 15.8978 12 15.5 12H14Z" fill="#769763"/>
</svg>
