<svg width="24" height="24" viewBox="0 0 24 24" fill="none" xmlns="http://www.w3.org/2000/svg">
<path d="M10.8434 7.3928L8.13699 4.26881C7.82499 3.90881 7.25299 3.91041 6.89059 4.27361L4.66499 6.5032C4.00259 7.1664 3.81299 8.15121 4.19619 8.94081C6.48548 13.6808 10.3082 17.5089 15.045 19.8048C15.8338 20.188 16.8178 19.9984 17.4802 19.3352L19.7266 17.0848C20.0906 16.7208 20.0914 16.1456 19.7282 15.8336L16.5922 13.1416C16.2642 12.86 15.7546 12.8968 15.4258 13.2264L14.3346 14.3192C14.2787 14.3778 14.2052 14.4163 14.1253 14.4291C14.0453 14.4418 13.9635 14.4279 13.8922 14.3896C12.1085 13.3625 10.629 11.881 9.60419 10.096C9.56581 10.0246 9.55191 9.94259 9.56463 9.86253C9.57734 9.78247 9.61597 9.7088 9.67459 9.6528L10.7626 8.56401C11.0922 8.23281 11.1282 7.7208 10.8434 7.392V7.3928Z" stroke="#769763" stroke-width="1.5" stroke-linecap="round" stroke-linejoin="round"/>
</svg>
