<svg width="30" height="30" viewBox="0 0 30 30" fill="none" xmlns="http://www.w3.org/2000/svg">
<path d="M23.8283 6.18414L23.8283 6.18415C23.9332 6.29395 24.0047 6.43131 24.0344 6.5802C24.0642 6.72892 24.0511 6.88304 23.9967 7.0246C23.9966 7.02476 23.9966 7.02491 23.9965 7.02506L17.9899 23.5433L23.8283 6.18414ZM23.8283 6.18414L23.8274 6.18324M23.8283 6.18414L23.8274 6.18324M23.8274 6.18324C23.7193 6.07566 23.5828 6.00118 23.4338 5.96855C23.2849 5.93593 23.1298 5.94649 22.9867 5.99899V5.99899L22.9865 5.99904L6.46749 12.006L6.46749 12.006M23.8274 6.18324L6.46749 12.006M6.46749 12.006L6.46684 12.0062M6.46749 12.006L6.46684 12.0062M6.46684 12.0062C6.31489 12.0638 6.18407 12.1663 6.09176 12.3001C5.99944 12.4338 5.95 12.5925 5.95 12.755C5.95 12.9175 5.99944 13.0762 6.09176 13.2099C6.18399 13.3436 6.31465 13.446 6.46642 13.5037C6.46656 13.5037 6.4667 13.5038 6.46684 13.5038L13.6545 16.3789L16.5298 23.5673L6.46684 12.0062ZM17.2506 24.0719L17.2506 24.0718C17.0943 24.0673 16.9428 24.017 16.8147 23.9274C16.6867 23.8377 16.5876 23.7126 16.5299 23.5674L17.2506 24.0719ZM17.2506 24.0719L17.2531 24.0718M17.2506 24.0719L17.2531 24.0718M17.2531 24.0718C17.4149 24.0685 17.572 24.0162 17.7035 23.9219M17.2531 24.0718L17.7035 23.9219M17.7035 23.9219C17.835 23.8275 17.9348 23.6956 17.9899 23.5434L17.7035 23.9219ZM18.7892 12.3511L18.8245 12.3158L18.7892 12.2804L17.7304 11.2217L17.6951 11.1863L17.6597 11.2217L14.0565 14.8249L8.98187 12.7615L21.9219 8.08896L17.2498 21.0277L15.2158 15.9245L18.7892 12.3511Z" fill="#769763" stroke="#769763" stroke-width="0.1"/>
</svg>
