<svg width="30" height="30" viewBox="0 0 30 30" fill="none" xmlns="http://www.w3.org/2000/svg">
<path d="M17.5681 9.21614C17.5681 8.45529 17.8378 7.71906 18.3293 7.1383C18.8209 6.55754 19.5024 6.16987 20.2528 6.04419C21.0032 5.9185 21.7739 6.06294 22.4278 6.45184C23.0818 6.84074 23.5767 7.4489 23.8246 8.16825C24.0724 8.88759 24.0572 9.67152 23.7817 10.3807C23.5061 11.0899 22.988 11.6784 22.3195 12.0417C21.6509 12.4049 20.8752 12.5194 20.1303 12.3647C19.3853 12.21 18.7193 11.7962 18.2506 11.1969L12.3175 14.1634C12.4639 14.7095 12.4639 15.2845 12.3175 15.8305L18.2532 18.7997C18.7452 18.1735 19.4521 17.7522 20.237 17.6176C21.0218 17.483 21.8287 17.6447 22.5012 18.0712C23.1736 18.4977 23.6638 19.1587 23.8766 19.9261C24.0894 20.6934 24.0097 21.5125 23.6529 22.2244C23.2962 22.9363 22.6878 23.4904 21.9457 23.7793C21.2036 24.0681 20.3807 24.0712 19.6365 23.7878C18.8923 23.5044 18.2799 22.9547 17.9179 22.2454C17.5559 21.5361 17.4702 20.7177 17.6774 19.9488L11.7417 16.9796C11.3291 17.5056 10.7627 17.8898 10.1215 18.0787C9.48026 18.2676 8.79608 18.2519 8.16423 18.0336C7.53238 17.8154 6.98433 17.4055 6.5964 16.8611C6.20848 16.3167 6 15.6648 6 14.9963C6 14.3279 6.20848 13.676 6.5964 13.1316C6.98433 12.5872 7.53238 12.1773 8.16423 11.9591C8.79608 11.7408 9.48026 11.7251 10.1215 11.914C10.7627 12.1029 11.3291 12.4871 11.7417 13.0131L17.6761 10.0478C17.604 9.77645 17.5677 9.49687 17.5681 9.21614ZM20.7841 7.28555C20.2722 7.28555 19.7813 7.48889 19.4194 7.85082C19.0575 8.21276 18.8541 8.70365 18.8541 9.2155C18.8541 9.72735 19.0575 10.2182 19.4194 10.5802C19.7813 10.9421 20.2722 11.1454 20.7841 11.1454C21.2959 11.1454 21.7868 10.9421 22.1487 10.5802C22.5107 10.2182 22.714 9.72735 22.714 9.2155C22.714 8.70365 22.5107 8.21276 22.1487 7.85082C21.7868 7.48889 21.2959 7.28555 20.7841 7.28555ZM20.7815 18.8537C20.2702 18.8537 19.7798 19.0568 19.4182 19.4184C19.0566 19.7799 18.8535 20.2703 18.8535 20.7817C18.8535 21.293 19.0566 21.7834 19.4182 22.145C19.7798 22.5066 20.2702 22.7097 20.7815 22.7097C21.2928 22.7097 21.7832 22.5066 22.1448 22.145C22.5064 21.7834 22.7095 21.293 22.7095 20.7817C22.7095 20.2703 22.5064 19.7799 22.1448 19.4184C21.7832 19.0568 21.2928 18.8537 20.7815 18.8537ZM7.28537 14.9976C7.28537 15.2508 7.33524 15.5015 7.43213 15.7354C7.52902 15.9694 7.67104 16.1819 7.85007 16.3609C8.0291 16.54 8.24165 16.682 8.47556 16.7789C8.70948 16.8758 8.96019 16.9256 9.21338 16.9256C9.46658 16.9256 9.71729 16.8758 9.9512 16.7789C10.1851 16.682 10.3977 16.54 10.5767 16.3609C10.7557 16.1819 10.8977 15.9694 10.9946 15.7354C11.0915 15.5015 11.1414 15.2508 11.1414 14.9976C11.1414 14.4863 10.9383 13.9959 10.5767 13.6343C10.2151 13.2727 9.72473 13.0696 9.21338 13.0696C8.70204 13.0696 8.21164 13.2727 7.85007 13.6343C7.4885 13.9959 7.28537 14.4863 7.28537 14.9976Z" fill="#769763"/>
</svg>
