<svg width="30" height="30" viewBox="0 0 30 30" fill="none" xmlns="http://www.w3.org/2000/svg">
<path d="M18.3333 7V9.22222V7ZM18.3333 13.6667V15.8889V13.6667ZM18.3333 20.3333V22.5556V20.3333ZM7.22222 7C6.63285 7 6.06762 7.23413 5.65087 7.65087C5.23413 8.06762 5 8.63285 5 9.22222V12.5556C5.58937 12.5556 6.1546 12.7897 6.57135 13.2064C6.9881 13.6232 7.22222 14.1884 7.22222 14.7778C7.22222 15.3671 6.9881 15.9324 6.57135 16.3491C6.1546 16.7659 5.58937 17 5 17V20.3333C5 20.9227 5.23413 21.4879 5.65087 21.9047C6.06762 22.3214 6.63285 22.5556 7.22222 22.5556H22.7778C23.3671 22.5556 23.9324 22.3214 24.3491 21.9047C24.7659 21.4879 25 20.9227 25 20.3333V17C24.4106 17 23.8454 16.7659 23.4287 16.3491C23.0119 15.9324 22.7778 15.3671 22.7778 14.7778C22.7778 14.1884 23.0119 13.6232 23.4287 13.2064C23.8454 12.7897 24.4106 12.5556 25 12.5556V9.22222C25 8.63285 24.7659 8.06762 24.3491 7.65087C23.9324 7.23413 23.3671 7 22.7778 7H7.22222Z" stroke="#769763" stroke-width="2" stroke-linecap="round" stroke-linejoin="round"/>
</svg>
