<svg width="44" height="44" viewBox="0 0 44 44" fill="none" xmlns="http://www.w3.org/2000/svg">
<path d="M33.87 21.6052C33.87 21.5464 33.87 21.4796 33.8673 21.4022C33.8647 21.1858 33.8593 20.9426 33.854 20.6835C33.8327 19.9381 33.7954 19.1954 33.7368 18.4955C33.6569 17.531 33.5397 16.7269 33.3798 16.1231C33.2111 15.493 32.8805 14.9183 32.4209 14.4565C31.9614 13.9948 31.389 13.662 30.761 13.4916C30.0071 13.2885 28.5312 13.163 26.4532 13.0855C25.4649 13.0481 24.4072 13.024 23.3496 13.0107C22.9793 13.0053 22.6356 13.0027 22.3266 13H21.5434C21.2344 13.0027 20.8907 13.0053 20.5204 13.0107C19.4628 13.024 18.4051 13.0481 17.4167 13.0855C15.3388 13.1656 13.8602 13.2912 13.109 13.4916C12.4808 13.6616 11.9082 13.9942 11.4486 14.456C10.989 14.9179 10.6585 15.4928 10.4902 16.1231C10.3277 16.7269 10.2131 17.531 10.1332 18.4955C10.0746 19.1954 10.0373 19.9381 10.016 20.6835C10.008 20.9426 10.0053 21.1858 10.0027 21.4022C10.0027 21.4796 10 21.5464 10 21.6052V21.7548C10 21.8136 10 21.8804 10.0027 21.9578C10.0053 22.1742 10.0107 22.4174 10.016 22.6765C10.0373 23.4219 10.0746 24.1646 10.1332 24.8645C10.2131 25.829 10.3303 26.6331 10.4902 27.2369C10.8312 28.5166 11.8329 29.5265 13.109 29.8684C13.8602 30.0715 15.3388 30.197 17.4167 30.2745C18.4051 30.3119 19.4628 30.336 20.5204 30.3493C20.8907 30.3547 21.2344 30.3573 21.5434 30.36H22.3266C22.6356 30.3573 22.9793 30.3547 23.3496 30.3493C24.4072 30.336 25.4649 30.3119 26.4532 30.2745C28.5312 30.1944 30.0098 30.0688 30.761 29.8684C32.0371 29.5265 33.0388 28.5193 33.3798 27.2369C33.5423 26.6331 33.6569 25.829 33.7368 24.8645C33.7954 24.1646 33.8327 23.4219 33.854 22.6765C33.862 22.4174 33.8647 22.1742 33.8673 21.9578C33.8673 21.8804 33.87 21.8136 33.87 21.7548V21.6052ZM31.9519 21.7441C31.9519 21.8002 31.9519 21.8617 31.9492 21.9338C31.9465 22.1422 31.9412 22.3719 31.9359 22.6204C31.9172 23.331 31.8799 24.0417 31.824 24.7016C31.7521 25.5618 31.6508 26.2671 31.5256 26.74C31.3605 27.3571 30.8756 27.846 30.2629 28.009C29.7034 28.1586 28.2941 28.2788 26.3787 28.351C25.4089 28.3884 24.3646 28.4124 23.323 28.4258C22.958 28.4311 22.6197 28.4338 22.316 28.4338H21.554L20.547 28.4258C19.5054 28.4124 18.4637 28.3884 17.4913 28.351C15.5759 28.2762 14.1639 28.1586 13.6071 28.009C12.9944 27.8434 12.5095 27.3571 12.3444 26.74C12.2192 26.2671 12.1179 25.5618 12.046 24.7016C11.9901 24.0417 11.9554 23.331 11.9341 22.6204C11.9261 22.3719 11.9235 22.1395 11.9208 21.9338C11.9208 21.8617 11.9181 21.7975 11.9181 21.7441V21.6159C11.9181 21.5598 11.9181 21.4983 11.9208 21.4262C11.9235 21.2178 11.9288 20.9881 11.9341 20.7396C11.9528 20.029 11.9901 19.3183 12.046 18.6584C12.1179 17.7982 12.2192 17.0929 12.3444 16.62C12.5095 16.0029 12.9944 15.514 13.6071 15.351C14.1666 15.2014 15.5759 15.0812 17.4913 15.009C18.4611 14.9716 19.5054 14.9476 20.547 14.9342C20.912 14.9289 21.2503 14.9262 21.554 14.9262H22.316L23.323 14.9342C24.3646 14.9476 25.4063 14.9716 26.3787 15.009C28.2941 15.0838 29.7061 15.2014 30.2629 15.351C30.8756 15.5166 31.3605 16.0029 31.5256 16.62C31.6508 17.0929 31.7521 17.7982 31.824 18.6584C31.8799 19.3183 31.9146 20.029 31.9359 20.7396C31.9439 20.9881 31.9465 21.2205 31.9492 21.4262C31.9492 21.4983 31.9519 21.5624 31.9519 21.6159V21.7441ZM19.564 25.2599L25.7446 21.6533L19.564 18.1001V25.2599Z" fill="#769763"/>
</svg>
