<svg width="60" height="60" viewBox="0 0 60 60" fill="none" xmlns="http://www.w3.org/2000/svg">
<path d="M10 26.45C10 26.45 25.07 30.01 38.83 16" stroke="#769763" stroke-miterlimit="10" stroke-linecap="round" stroke-linejoin="round"/>
<path d="M17.9 27.0901L15.98 31.6801L13.09 27.0901" stroke="#769763" stroke-miterlimit="10" stroke-linecap="round" stroke-linejoin="round"/>
<path d="M25.07 25.1001L23.99 30.4901L20.23 26.3101" stroke="#769763" stroke-miterlimit="10" stroke-linecap="round" stroke-linejoin="round"/>
<path d="M31.08 22.1599L30.91 27.8399L26.49 24.4599" stroke="#769763" stroke-miterlimit="10" stroke-linecap="round" stroke-linejoin="round"/>
<path d="M36.48 18.22L37.46 24.07L32.38 21.34" stroke="#769763" stroke-miterlimit="10" stroke-linecap="round" stroke-linejoin="round"/>
<path d="M27.4 31.2C27.4 31.2 34.99 40.31 49.9 40.61" stroke="#769763" stroke-miterlimit="10" stroke-linecap="round" stroke-linejoin="round"/>
<path d="M33.34 36.4501L29.05 38.9701L29.49 33.5601" stroke="#769763" stroke-miterlimit="10" stroke-linecap="round" stroke-linejoin="round"/>
<path d="M40.27 39.16L36.17 42.83L35.67 37.23" stroke="#769763" stroke-miterlimit="10" stroke-linecap="round" stroke-linejoin="round"/>
<path d="M46.84 40.41L43.3 44.86L41.79 39.5" stroke="#769763" stroke-miterlimit="10" stroke-linecap="round" stroke-linejoin="round"/>
<path d="M37.99 29.0701V31.9101" stroke="#769763" stroke-miterlimit="10" stroke-linecap="round" stroke-linejoin="round"/>
<path d="M39.4099 30.49H36.5699" stroke="#769763" stroke-miterlimit="10" stroke-linecap="round" stroke-linejoin="round"/>
<path d="M19.7999 36.3301V39.7301" stroke="#769763" stroke-miterlimit="10" stroke-linecap="round" stroke-linejoin="round"/>
<path d="M21.5 38.03H18.1" stroke="#769763" stroke-miterlimit="10" stroke-linecap="round" stroke-linejoin="round"/>
<path d="M24.1899 16V19.4" stroke="#769763" stroke-miterlimit="10" stroke-linecap="round" stroke-linejoin="round"/>
<path d="M25.89 17.7H22.48" stroke="#769763" stroke-miterlimit="10" stroke-linecap="round" stroke-linejoin="round"/>
</svg>
