<svg width="30" height="30" viewBox="0 0 30 30" fill="none" xmlns="http://www.w3.org/2000/svg">
<path d="M13.5576 8.35692L13.5555 8.35484C12.6 7.39483 11.3024 6.85355 9.94793 6.85002C8.59428 6.84648 7.29459 7.38033 6.33426 8.33426C5.38033 9.29459 4.84648 10.5943 4.85002 11.9479C4.85355 13.3024 5.39483 14.6 6.35484 15.5555L6.35632 15.557L14.9863 24.1888L13.5576 8.35692ZM13.5576 8.35692L14.39 9.18748L14.9917 9.78786L15.5921 9.18614L16.4097 8.36673C16.41 8.36642 16.4103 8.36611 16.4106 8.36581C16.8864 7.89228 17.4509 7.5171 18.0717 7.26168C18.6929 7.0061 19.3584 6.87545 20.0302 6.8772C20.7019 6.87896 21.3667 7.01307 21.9866 7.27189C22.6065 7.53071 23.1693 7.90916 23.6428 8.3856L23.6459 8.38871C24.6055 9.34414 25.1464 10.6414 25.15 11.9955C25.1535 13.349 24.6198 14.6486 23.6661 15.6089C23.6656 15.6093 23.6652 15.6097 23.6648 15.6101L15.0807 24.1887L15.0806 24.1888M13.5576 8.35692L15.0806 24.1888M15.0806 24.1888C15.0681 24.2013 15.0512 24.2083 15.0335 24.2083C15.0158 24.2083 14.9989 24.2014 14.9864 24.189L15.0806 24.1888Z" fill="#769763" stroke="#769763" stroke-width="1.7"/>
</svg>
