<svg width="22" height="20" viewBox="0 0 22 20" fill="none" xmlns="http://www.w3.org/2000/svg">
<path d="M9.6264 2.2843L9.62824 2.28613L10.4606 3.11669L10.9916 3.64644L11.5213 3.11551L12.3391 2.29586C12.3394 2.29559 12.3397 2.29532 12.3399 2.29505C12.8251 1.8122 13.4006 1.42964 14.0336 1.1692C14.667 0.908622 15.3455 0.775419 16.0304 0.777205C16.7153 0.778991 17.3931 0.915733 18.0251 1.17961C18.6571 1.44349 19.2309 1.82934 19.7138 2.31511L19.7165 2.31785C20.6948 3.29198 21.2464 4.61467 21.25 5.99526C21.2536 7.37539 20.7093 8.70051 19.7367 9.67965C19.7364 9.67998 19.7361 9.6803 19.7357 9.68063L11.1514 18.2594L11.1513 18.2595C11.1201 18.2908 11.0777 18.3083 11.0335 18.3083C10.9893 18.3083 10.947 18.2908 10.9157 18.2597C10.9157 18.2596 10.9156 18.2596 10.9156 18.2596C10.9156 18.2595 10.9156 18.2595 10.9156 18.2595L2.2856 9.62771L2.28429 9.62641C1.30549 8.6522 0.753624 7.32918 0.750018 5.94819C0.746413 4.56793 1.2908 3.2427 2.26355 2.26355C3.2427 1.2908 4.56793 0.746413 5.94819 0.750018C7.32917 0.753624 8.6522 1.30549 9.6264 2.2843Z" stroke="#769763" stroke-width="1.5"/>
</svg>
