<svg width="30" height="30" viewBox="0 0 30 30" fill="none" xmlns="http://www.w3.org/2000/svg">
<path d="M23.3636 13.1818C23.3636 19.5455 15.1818 25 15.1818 25C15.1818 25 7 19.5455 7 13.1818C7 11.0119 7.86201 8.93079 9.3964 7.3964C10.9308 5.86201 13.0119 5 15.1818 5C17.3518 5 19.4328 5.86201 20.9672 7.3964C22.5016 8.93079 23.3636 11.0119 23.3636 13.1818Z" stroke="#769763" stroke-linecap="round" stroke-linejoin="round"/>
<path d="M15.1819 15.9091C16.6881 15.9091 17.9091 14.6881 17.9091 13.1819C17.9091 11.6756 16.6881 10.4546 15.1819 10.4546C13.6756 10.4546 12.4546 11.6756 12.4546 13.1819C12.4546 14.6881 13.6756 15.9091 15.1819 15.9091Z" stroke="#769763" stroke-linecap="round" stroke-linejoin="round"/>
</svg>
