<svg width="24" height="24" viewBox="0 0 24 24" fill="none" xmlns="http://www.w3.org/2000/svg">
<path d="M18.6905 10.5455C18.6905 15.6364 12.1451 20 12.1451 20C12.1451 20 5.59961 15.6364 5.59961 10.5455C5.59961 8.80949 6.28922 7.14463 7.51673 5.91712C8.74424 4.68961 10.4091 4 12.1451 4C13.881 4 15.5459 4.68961 16.7734 5.91712C18.0009 7.14463 18.6905 8.80949 18.6905 10.5455Z" stroke="#769763" stroke-width="1.5" stroke-linecap="round" stroke-linejoin="round"/>
<path d="M12.1447 12.7274C13.3497 12.7274 14.3265 11.7506 14.3265 10.5456C14.3265 9.3406 13.3497 8.36377 12.1447 8.36377C10.9397 8.36377 9.96289 9.3406 9.96289 10.5456C9.96289 11.7506 10.9397 12.7274 12.1447 12.7274Z" stroke="#769763" stroke-width="1.5" stroke-linecap="round" stroke-linejoin="round"/>
</svg>
