<svg width="60" height="60" viewBox="0 0 60 60" fill="none" xmlns="http://www.w3.org/2000/svg">
<path d="M19.9358 18.2008C19.9799 18.0025 20.0239 17.7931 20.09 17.5948C21.1037 14.4325 24.4974 12.6916 27.6597 13.7163C30.822 14.741 32.5629 18.1237 31.5382 21.286C31.1636 22.4429 30.4805 23.4126 29.599 24.1177" stroke="#769763" stroke-miterlimit="10" stroke-linecap="round" stroke-linejoin="round"/>
<path d="M23.2521 18.2007C23.8581 16.9446 25.3235 16.2835 26.6898 16.7242C28.1883 17.209 29.0037 18.8177 28.5299 20.3052C28.4197 20.6358 28.2545 20.9333 28.0561 21.1977" stroke="#769763" stroke-miterlimit="10" stroke-linecap="round" stroke-linejoin="round"/>
<path d="M35.0862 28.2275L44.1544 17.2642L46.5123 19.6331L39.6037 28.0292" stroke="#769763" stroke-miterlimit="10" stroke-linecap="round" stroke-linejoin="round"/>
<path d="M30.8 28.2495L42.9644 13.4297L45.3334 15.7876L35.1303 28.2495" stroke="#769763" stroke-miterlimit="10" stroke-linecap="round" stroke-linejoin="round"/>
<path d="M29.7424 24.2388L38.9428 13L41.3118 15.358L30.7561 28.2496" stroke="#769763" stroke-miterlimit="10" stroke-linecap="round" stroke-linejoin="round"/>
<path d="M39.692 27.941L44.6834 22.0461L47.0523 24.4151L43.9562 27.941" stroke="#769763" stroke-miterlimit="10" stroke-linecap="round" stroke-linejoin="round"/>
<path d="M13.6001 27.9961C13.4899 27.335 13.4348 27.0265 13.4348 26.4535C13.4348 21.8919 17.126 18.2007 21.6876 18.2007C26.2493 18.2007 29.9405 21.8919 29.9405 26.4535C29.9405 27.0044 29.8854 27.3019 29.7862 27.941" stroke="#769763" stroke-miterlimit="10" stroke-linecap="round" stroke-linejoin="round"/>
<path d="M16.8615 28.2274C16.6632 27.6765 16.553 27.0815 16.553 26.4644C16.553 23.6327 18.8558 21.3298 21.6876 21.3298C24.5193 21.3298 26.8222 23.6327 26.8222 26.4644C26.8222 27.1035 26.701 27.7095 26.4916 28.2715" stroke="#769763" stroke-miterlimit="10" stroke-linecap="round" stroke-linejoin="round"/>
<path d="M38.8986 44.3805H20.1011C15.0767 44.3805 10.9999 35.9294 10.9999 30.905V28.2495H47.9999V30.905C47.9999 35.9294 43.923 44.3805 38.8986 44.3805Z" stroke="#769763" stroke-miterlimit="10" stroke-linecap="round" stroke-linejoin="round"/>
<path d="M39.1961 44.3806H19.8036V47.7853H39.1961V44.3806Z" stroke="#769763" stroke-miterlimit="10" stroke-linecap="round" stroke-linejoin="round"/>
<path d="M13.8975 32.095H45.1017" stroke="#769763" stroke-miterlimit="10" stroke-linecap="round" stroke-linejoin="round"/>
</svg>
