<svg width="60" height="60" viewBox="0 0 60 60" fill="none" xmlns="http://www.w3.org/2000/svg">
<path d="M29.604 45.7921C38.6636 45.7921 46.008 38.4478 46.008 29.3881C46.008 20.3285 38.6636 12.9841 29.604 12.9841C20.5443 12.9841 13.2 20.3285 13.2 29.3881C13.2 38.4478 20.5443 45.7921 29.604 45.7921Z" stroke="#769763" stroke-miterlimit="10" stroke-linecap="round" stroke-linejoin="round"/>
<path d="M29.604 45.7921C38.6636 45.7921 46.008 38.4478 46.008 29.3881C46.008 20.3285 38.6636 12.9841 29.604 12.9841C20.5443 12.9841 13.2 20.3285 13.2 29.3881C13.2 38.4478 20.5443 45.7921 29.604 45.7921Z" stroke="#769763" stroke-miterlimit="10" stroke-linecap="round" stroke-linejoin="round"/>
<path d="M29.6041 43.068C37.1593 43.068 43.2841 36.9433 43.2841 29.388C43.2841 21.8328 37.1593 15.708 29.6041 15.708C22.0488 15.708 15.9241 21.8328 15.9241 29.388C15.9241 36.9433 22.0488 43.068 29.6041 43.068Z" stroke="#769763" stroke-miterlimit="10" stroke-linecap="round" stroke-linejoin="round"/>
<path d="M30.6 20.16C32.352 20.868 32.448 24.372 30.816 27.972C29.184 31.572 24.684 33.204 24.684 33.204C24.684 33.204 22.836 28.992 24.468 25.392C26.1 21.792 28.848 19.452 30.6 20.16Z" stroke="#769763" stroke-miterlimit="10" stroke-linecap="round" stroke-linejoin="round"/>
<path d="M24.2399 33.216L21.5999 34.644C21.2159 34.848 21.2519 35.4 21.6479 35.568L25.0079 36.936C25.3919 37.092 25.7999 36.744 25.6919 36.336L24.9719 33.54C24.8999 33.216 24.5279 33.06 24.2399 33.216Z" stroke="#769763" stroke-miterlimit="10" stroke-linecap="round" stroke-linejoin="round"/>
<path d="M40.08 10.8L29.604 48.684" stroke="#769763" stroke-miterlimit="10" stroke-linecap="round" stroke-linejoin="round"/>
<path d="M43.2961 11.5439L32.8201 49.4399" stroke="#769763" stroke-miterlimit="10" stroke-linecap="round" stroke-linejoin="round"/>
</svg>
